LibreFranklin-Thin.ufo
<glyph name="ampersand" format="2">
	<advance width="740"/>
	<unicode hex="0026"/>
	<outline>
		<contour>
			<point x="314" y="753" type="curve"/>
			<point x="314" y="753" type="line"/>
			<point x="202" y="753"/>
			<point x="118" y="673"/>
			<point x="118" y="568" type="curve"/>
			<point x="118" y="514"/>
			<point x="140" y="468"/>
			<point x="186" y="420" type="curve"/>
			<point x="199" y="406"/>
			<point x="198" y="403"/>
			<point x="185" y="395" type="curve"/>
			<point x="79" y="330"/>
			<point x="40" y="266"/>
			<point x="40" y="187" type="curve"/>
			<point x="40" y="72"/>
			<point x="121" y="-5"/>
			<point x="248" y="-5" type="curve"/>
			<point x="329" y="-5"/>
			<point x="403" y="28"/>
			<point x="465" y="86" type="curve"/>
			<point x="470" y="91"/>
			<point x="474" y="91"/>
			<point x="479" y="87" type="curve"/>
			<point x="529" y="45"/>
			<point x="636" y="0"/>
			<point x="704" y="0" type="curve"/>
			<point x="717" y="0"/>
			<point x="720" y="3"/>
			<point x="720" y="14" type="curve"/>
			<point x="720" y="29" type="line" smooth="yes"/>
			<point x="720" y="36"/>
			<point x="717" y="39"/>
			<point x="708" y="39" type="curve"/>
			<point x="641" y="39"/>
			<point x="555" y="74"/>
			<point x="515" y="114" type="curve"/>
			<point x="509" y="120"/>
			<point x="508" y="124"/>
			<point x="513" y="129" type="curve"/>
			<point x="582" y="198"/>
			<point x="660" y="307"/>
			<point x="679" y="370" type="curve"/>
			<point x="680" y="374"/>
			<point x="677" y="378"/>
			<point x="673" y="380" type="curve"/>
			<point x="656" y="387" type="line" smooth="yes"/>
			<point x="651" y="389"/>
			<point x="645" y="388"/>
			<point x="643" y="382" type="curve"/>
			<point x="626" y="332"/>
			<point x="545" y="213"/>
			<point x="488" y="161" type="curve"/>
			<point x="479" y="153"/>
			<point x="479" y="153"/>
			<point x="473" y="160" type="curve"/>
			<point x="285" y="384" type="line" smooth="yes"/>
			<point x="278" y="393"/>
			<point x="278" y="396"/>
			<point x="288" y="400" type="curve"/>
			<point x="429" y="461"/>
			<point x="480" y="532"/>
			<point x="480" y="608" type="curve"/>
			<point x="480" y="700"/>
			<point x="406" y="753"/>
		</contour>
		<contour>
			<point x="314" y="714" type="curve"/>
			<point x="314" y="714" type="line"/>
			<point x="379" y="714"/>
			<point x="434" y="681"/>
			<point x="434" y="610" type="curve"/>
			<point x="434" y="542"/>
			<point x="385" y="489"/>
			<point x="254" y="427" type="curve"/>
			<point x="247" y="424"/>
			<point x="240" y="425"/>
			<point x="237" y="429" type="curve"/>
			<point x="214" y="454" type="line" smooth="yes"/>
			<point x="178" y="494"/>
			<point x="165" y="527"/>
			<point x="165" y="567" type="curve"/>
			<point x="165" y="645"/>
			<point x="219" y="714"/>
		</contour>
		<contour>
			<point x="245" y="361" type="curve"/>
			<point x="245" y="361" type="line"/>
			<point x="439" y="132" type="line" smooth="yes"/>
			<point x="445" y="124"/>
			<point x="445" y="117"/>
			<point x="436" y="109" type="curve"/>
			<point x="388" y="65"/>
			<point x="320" y="33"/>
			<point x="252" y="33" type="curve"/>
			<point x="156" y="33"/>
			<point x="85" y="93"/>
			<point x="85" y="183" type="curve"/>
			<point x="85" y="259"/>
			<point x="135" y="327"/>
			<point x="217" y="366" type="curve"/>
			<point x="230" y="372"/>
			<point x="237" y="371"/>
		</contour>
	</outline>
</glyph>
<glyph name="four" format="2">
  <advance width="623"/>
  <unicode hex="0034"/>
  <outline>
    <contour>
      <point x="401" y="737" type="curve"/>
      <point x="401" y="737" type="line"/>
      <point x="61" y="277" type="line" smooth="yes"/>
      <point x="54" y="267"/>
      <point x="52" y="261"/>
      <point x="52" y="255" type="curve"/>
      <point x="52" y="224" type="line" smooth="yes"/>
      <point x="52" y="216"/>
      <point x="56" y="214"/>
      <point x="63" y="214" type="curve"/>
      <point x="401" y="214" type="line" smooth="yes"/>
      <point x="407" y="214"/>
      <point x="409" y="212"/>
      <point x="409" y="208" type="curve"/>
      <point x="409" y="9" type="line" smooth="yes"/>
      <point x="409" y="4"/>
      <point x="412" y="0"/>
      <point x="417" y="0" type="curve"/>
      <point x="445" y="0" type="line" smooth="yes"/>
      <point x="452" y="0"/>
      <point x="455" y="3"/>
      <point x="455" y="9" type="curve"/>
      <point x="455" y="205" type="line" smooth="yes"/>
      <point x="455" y="212"/>
      <point x="458" y="214"/>
      <point x="463" y="214" type="curve"/>
      <point x="564" y="214" type="line" smooth="yes"/>
      <point x="571" y="214"/>
      <point x="574" y="218"/>
      <point x="574" y="224" type="curve"/>
      <point x="574" y="249" type="line" smooth="yes"/>
      <point x="574" y="254"/>
      <point x="570" y="256"/>
      <point x="564" y="256" type="curve"/>
      <point x="462" y="256" type="line" smooth="yes"/>
      <point x="457" y="256"/>
      <point x="455" y="259"/>
      <point x="455" y="264" type="curve"/>
      <point x="455" y="733" type="line" smooth="yes"/>
      <point x="455" y="739"/>
      <point x="452" y="742"/>
      <point x="446" y="742" type="curve"/>
      <point x="415" y="742" type="line" smooth="yes"/>
      <point x="408" y="742"/>
      <point x="403" y="740"/>
    </contour>
    <contour>
      <point x="396" y="256" type="curve"/>
      <point x="113" y="256" type="line"/>
      <point x="103" y="256"/>
      <point x="100" y="261"/>
      <point x="106" y="269" type="curve"/>
      <point x="391" y="654" type="line" smooth="yes"/>
      <point x="400" y="666"/>
      <point x="405" y="664"/>
      <point x="405" y="650" type="curve"/>
      <point x="405" y="263" type="line" smooth="yes"/>
      <point x="405" y="259"/>
      <point x="401" y="256"/>
    </contour>
  </outline>
</glyph>
<glyph name="eight" format="2">
	<advance width="659"/>
	<unicode hex="0038"/>
	<outline>
		<contour>
			<point x="331" y="752" type="curve"/>
			<point x="331" y="752" type="line"/>
			<point x="195" y="752"/>
			<point x="93" y="664"/>
			<point x="93" y="546" type="curve"/>
			<point x="93" y="476"/>
			<point x="126" y="423"/>
			<point x="187" y="393" type="curve"/>
			<point x="205" y="384"/>
			<point x="205" y="380"/>
			<point x="187" y="368" type="curve"/>
			<point x="108" y="314"/>
			<point x="73" y="258"/>
			<point x="73" y="185" type="curve"/>
			<point x="73" y="63"/>
			<point x="169" y="-10"/>
			<point x="329" y="-10" type="curve"/>
			<point x="486" y="-10"/>
			<point x="590" y="69"/>
			<point x="590" y="188" type="curve"/>
			<point x="590" y="273"/>
			<point x="539" y="338"/>
			<point x="452" y="365" type="curve"/>
			<point x="443" y="368"/>
			<point x="443" y="372"/>
			<point x="453" y="379" type="curve"/>
			<point x="528" y="436"/>
			<point x="557" y="483"/>
			<point x="557" y="549" type="curve"/>
			<point x="557" y="672"/>
			<point x="468" y="752"/>
		</contour>
		<contour>
			<point x="331" y="710" type="curve"/>
			<point x="331" y="710" type="line"/>
			<point x="440" y="710"/>
			<point x="511" y="648"/>
			<point x="511" y="554" type="curve"/>
			<point x="511" y="464"/>
			<point x="419" y="377"/>
			<point x="380" y="385" type="curve"/>
			<point x="263" y="410" type="line" smooth="yes"/>
			<point x="181" y="427"/>
			<point x="139" y="473"/>
			<point x="139" y="546" type="curve"/>
			<point x="139" y="639"/>
			<point x="222" y="710"/>
		</contour>
		<contour>
			<point x="330" y="32" type="curve"/>
			<point x="330" y="32" type="line"/>
			<point x="197" y="32"/>
			<point x="119" y="89"/>
			<point x="119" y="186" type="curve"/>
			<point x="119" y="293"/>
			<point x="232" y="370"/>
			<point x="271" y="361" type="curve"/>
			<point x="423" y="327" type="line" smooth="yes"/>
			<point x="506" y="309"/>
			<point x="544" y="266"/>
			<point x="544" y="191" type="curve"/>
			<point x="544" y="94"/>
			<point x="460" y="32"/>
		</contour>
	</outline>
</glyph>
<glyph name="question" format="2">
  <advance width="514"/>
  <unicode hex="003F"/>
  <outline>
    <contour>
      <point x="275" y="11" type="curve"/>
      <point x="275" y="71" type="line"/>
      <point x="275" y="77"/>
      <point x="273" y="79"/>
      <point x="268" y="79" type="curve"/>
      <point x="220" y="79" type="line" smooth="yes"/>
      <point x="215" y="79"/>
      <point x="213" y="76"/>
      <point x="213" y="70" type="curve"/>
      <point x="213" y="10" type="line" smooth="yes"/>
      <point x="213" y="3"/>
      <point x="216" y="0"/>
      <point x="223" y="0" type="curve"/>
      <point x="262" y="0" type="line" smooth="yes"/>
      <point x="272" y="0"/>
      <point x="275" y="3"/>
    </contour>
    <contour>
      <point x="44" y="621" type="curve"/>
      <point x="74" y="607" type="line" smooth="yes"/>
      <point x="79" y="605"/>
      <point x="80" y="607"/>
      <point x="82" y="610" type="curve"/>
      <point x="105" y="664"/>
      <point x="188" y="710"/>
      <point x="265" y="710" type="curve"/>
      <point x="365" y="710"/>
      <point x="430" y="656"/>
      <point x="430" y="570" type="curve"/>
      <point x="430" y="408"/>
      <point x="223" y="355"/>
      <point x="223" y="159" type="curve"/>
      <point x="223" y="153"/>
      <point x="226" y="150"/>
      <point x="231" y="150" type="curve"/>
      <point x="258" y="150" type="line" smooth="yes"/>
      <point x="262" y="150"/>
      <point x="265" y="154"/>
      <point x="265" y="158" type="curve"/>
      <point x="265" y="340"/>
      <point x="476" y="393"/>
      <point x="476" y="570" type="curve"/>
      <point x="476" y="681"/>
      <point x="394" y="752"/>
      <point x="265" y="752" type="curve"/>
      <point x="170" y="752"/>
      <point x="83" y="704"/>
      <point x="41" y="629" type="curve"/>
      <point x="39" y="626"/>
      <point x="40" y="623"/>
    </contour>
  </outline>
</glyph>
<glyph name="I" format="2">
  <advance width="274"/>
  <unicode hex="0049"/>
  <anchor x="149" y="10" name="ogonek"/>
  <anchor x="137" y="0" name="bottom"/>
  <anchor x="140" y="742" name="top"/>
  <outline>
    <contour>
      <point x="151" y="742" type="curve"/>
      <point x="123" y="742" type="line"/>
      <point x="116" y="742"/>
      <point x="114" y="740"/>
      <point x="114" y="732" type="curve"/>
      <point x="114" y="10" type="line" smooth="yes"/>
      <point x="114" y="2"/>
      <point x="116" y="0"/>
      <point x="125" y="0" type="curve"/>
      <point x="148" y="0" type="line" smooth="yes"/>
      <point x="158" y="0"/>
      <point x="160" y="2"/>
      <point x="160" y="12" type="curve"/>
      <point x="160" y="732" type="line" smooth="yes"/>
      <point x="160" y="740"/>
      <point x="158" y="742"/>
    </contour>
  </outline>
</glyph>
<glyph name="L" format="2">
  <advance width="587"/>
  <unicode hex="004C"/>
  <anchor x="137" y="742" name="top"/>
  <anchor x="319" y="0" name="bottom"/>
  <anchor x="423" y="742" name="topright"/>
  <outline>
    <contour>
      <point x="114" y="732" type="curve"/>
      <point x="114" y="732" type="line"/>
      <point x="114" y="10" type="line" smooth="yes"/>
      <point x="114" y="3"/>
      <point x="116" y="0"/>
      <point x="123" y="0" type="curve"/>
      <point x="533" y="0" type="line"/>
      <point x="538" y="0"/>
      <point x="540" y="2"/>
      <point x="540" y="7" type="curve"/>
      <point x="540" y="33" type="line" smooth="yes"/>
      <point x="540" y="39"/>
      <point x="538" y="40"/>
      <point x="532" y="40" type="curve"/>
      <point x="169" y="40" type="line" smooth="yes"/>
      <point x="162" y="40"/>
      <point x="160" y="41"/>
      <point x="160" y="49" type="curve"/>
      <point x="160" y="732" type="line" smooth="yes"/>
      <point x="160" y="740"/>
      <point x="158" y="742"/>
      <point x="151" y="742" type="curve"/>
      <point x="123" y="742" type="line" smooth="yes"/>
      <point x="116" y="742"/>
      <point x="114" y="740"/>
    </contour>
  </outline>
</glyph>
<glyph name="N" format="2">
  <advance width="755"/>
  <unicode hex="004E"/>
  <guideline x="48" y="576" angle="0"/>
  <anchor x="394" y="742" name="top"/>
  <anchor x="359" y="0" name="bottom"/>
  <outline>
    <contour>
      <point x="632" y="742" type="curve"/>
      <point x="605" y="742" type="line"/>
      <point x="599" y="742"/>
      <point x="597" y="739"/>
      <point x="597" y="733" type="curve"/>
      <point x="597" y="107" type="line" smooth="yes"/>
      <point x="597" y="101"/>
      <point x="590" y="95"/>
      <point x="583" y="105" type="curve"/>
      <point x="156" y="735" type="line" smooth="yes"/>
      <point x="152" y="741"/>
      <point x="149" y="742"/>
      <point x="141" y="742" type="curve"/>
      <point x="123" y="742" type="line"/>
      <point x="116" y="742"/>
      <point x="114" y="740"/>
      <point x="114" y="732" type="curve"/>
      <point x="114" y="10" type="line" smooth="yes"/>
      <point x="114" y="3"/>
      <point x="116" y="0"/>
      <point x="123" y="0" type="curve"/>
      <point x="148" y="0" type="line" smooth="yes"/>
      <point x="155" y="0"/>
      <point x="158" y="3"/>
      <point x="158" y="9" type="curve"/>
      <point x="158" y="637" type="line" smooth="yes"/>
      <point x="158" y="645"/>
      <point x="163" y="647"/>
      <point x="170" y="637" type="curve"/>
      <point x="598" y="6" type="line" smooth="yes"/>
      <point x="603" y="-1"/>
      <point x="609" y="0"/>
      <point x="617" y="0" type="curve"/>
      <point x="632" y="0" type="line" smooth="yes"/>
      <point x="638" y="0"/>
      <point x="641" y="3"/>
      <point x="641" y="10" type="curve"/>
      <point x="641" y="732" type="line" smooth="yes"/>
      <point x="641" y="740"/>
      <point x="639" y="742"/>
    </contour>
  </outline>
</glyph>
<glyph name="S" format="2">
	<advance width="618"/>
	<unicode hex="0053"/>
	<anchor x="319" y="742" name="top"/>
	<anchor x="323" y="0" name="bottom"/>
	<outline>
		<contour>
			<point x="500" y="627" type="curve"/>
			<point x="500" y="627" type="line"/>
			<point x="506" y="620"/>
			<point x="508" y="618"/>
			<point x="513" y="622" type="curve"/>
			<point x="535" y="642" type="line" smooth="yes"/>
			<point x="541" y="647"/>
			<point x="539" y="652"/>
			<point x="535" y="656" type="curve"/>
			<point x="478" y="716"/>
			<point x="411" y="752"/>
			<point x="318" y="752" type="curve"/>
			<point x="181" y="752"/>
			<point x="86" y="681"/>
			<point x="86" y="556" type="curve"/>
			<point x="86" y="492"/>
			<point x="116" y="421"/>
			<point x="224" y="380" type="curve"/>
			<point x="375" y="322" type="line" smooth="yes"/>
			<point x="484" y="280"/>
			<point x="507" y="239"/>
			<point x="507" y="180" type="curve"/>
			<point x="507" y="73"/>
			<point x="428" y="32"/>
			<point x="309" y="32" type="curve"/>
			<point x="202" y="32"/>
			<point x="154" y="69"/>
			<point x="98" y="141" type="curve"/>
			<point x="93" y="147"/>
			<point x="88" y="148"/>
			<point x="78" y="141" type="curve"/>
			<point x="67" y="133" type="line" smooth="yes"/>
			<point x="57" y="126"/>
			<point x="56" y="120"/>
			<point x="61" y="113" type="curve"/>
			<point x="120" y="29"/>
			<point x="198" y="-10"/>
			<point x="309" y="-10" type="curve"/>
			<point x="460" y="-10"/>
			<point x="553" y="60"/>
			<point x="553" y="182" type="curve"/>
			<point x="553" y="266"/>
			<point x="510" y="326"/>
			<point x="392" y="369" type="curve"/>
			<point x="254" y="419" type="line" smooth="yes"/>
			<point x="147" y="458"/>
			<point x="132" y="518"/>
			<point x="132" y="557" type="curve"/>
			<point x="132" y="656"/>
			<point x="206" y="710"/>
			<point x="315" y="710" type="curve"/>
			<point x="399" y="710"/>
			<point x="460" y="674"/>
		</contour>
	</outline>
</glyph>
<glyph name="Y" format="2">
	<advance width="638"/>
	<unicode hex="0059"/>
	<anchor x="314" y="742" name="top"/>
	<anchor x="319" y="0" name="bottom"/>
	<anchor x="20" y="742" name="topleft"/>
	<outline>
		<contour>
			<point x="582" y="742" type="curve"/>
			<point x="582" y="742" type="line"/>
			<point x="556" y="742" type="line" smooth="yes"/>
			<point x="547" y="742"/>
			<point x="545" y="741"/>
			<point x="540" y="733" type="curve"/>
			<point x="331" y="374" type="line" smooth="yes"/>
			<point x="323" y="361"/>
			<point x="316" y="360"/>
			<point x="307" y="376" type="curve"/>
			<point x="97" y="733" type="line" smooth="yes"/>
			<point x="93" y="740"/>
			<point x="90" y="742"/>
			<point x="81" y="742" type="curve"/>
			<point x="58" y="742" type="line" smooth="yes"/>
			<point x="48" y="742"/>
			<point x="46" y="737"/>
			<point x="50" y="730" type="curve"/>
			<point x="294" y="315" type="line" smooth="yes"/>
			<point x="298" y="308"/>
			<point x="299" y="305"/>
			<point x="299" y="295" type="curve"/>
			<point x="299" y="11" type="line" smooth="yes"/>
			<point x="299" y="4"/>
			<point x="302" y="0"/>
			<point x="311" y="0" type="curve"/>
			<point x="330" y="0" type="line" smooth="yes"/>
			<point x="341" y="0"/>
			<point x="345" y="4"/>
			<point x="345" y="13" type="curve"/>
			<point x="345" y="306" type="line" smooth="yes"/>
			<point x="345" y="316"/>
			<point x="345" y="320"/>
			<point x="349" y="326" type="curve"/>
			<point x="588" y="731" type="line" smooth="yes"/>
			<point x="592" y="737"/>
			<point x="589" y="742"/>
		</contour>
	</outline>
</glyph>
<glyph name="Z" format="2">
  <advance width="600"/>
  <unicode hex="005A"/>
  <anchor x="305" y="742" name="top"/>
  <anchor x="312" y="0" name="bottom"/>
  <outline>
    <contour>
      <point x="63" y="0" type="curve"/>
      <point x="63" y="0" type="line"/>
      <point x="537" y="0" type="line" smooth="yes"/>
      <point x="542" y="0"/>
      <point x="544" y="3"/>
      <point x="544" y="7" type="curve"/>
      <point x="544" y="35" type="line" smooth="yes"/>
      <point x="544" y="39"/>
      <point x="542" y="40"/>
      <point x="538" y="40" type="curve"/>
      <point x="117" y="40" type="line" smooth="yes"/>
      <point x="113" y="40"/>
      <point x="112" y="43"/>
      <point x="115" y="48" type="curve"/>
      <point x="539" y="707" type="line" smooth="yes"/>
      <point x="542" y="712"/>
      <point x="544" y="714"/>
      <point x="544" y="719" type="curve"/>
      <point x="544" y="736" type="line" smooth="yes"/>
      <point x="544" y="740"/>
      <point x="542" y="742"/>
      <point x="538" y="742" type="curve"/>
      <point x="71" y="742" type="line" smooth="yes"/>
      <point x="67" y="742"/>
      <point x="65" y="740"/>
      <point x="65" y="736" type="curve"/>
      <point x="65" y="709" type="line" smooth="yes"/>
      <point x="65" y="704"/>
      <point x="67" y="702"/>
      <point x="72" y="702" type="curve"/>
      <point x="478" y="702" type="line" smooth="yes"/>
      <point x="483" y="702"/>
      <point x="485" y="700"/>
      <point x="482" y="695" type="curve"/>
      <point x="62" y="39" type="line" smooth="yes"/>
      <point x="57" y="32"/>
      <point x="55" y="28"/>
      <point x="55" y="22" type="curve"/>
      <point x="55" y="7" type="line" smooth="yes"/>
      <point x="55" y="2"/>
      <point x="57" y="0"/>
    </contour>
  </outline>
</glyph>
<glyph name="b" format="2">
  <advance width="592"/>
  <unicode hex="0062"/>
  <outline>
    <contour>
      <point x="102" y="0" type="curve"/>
      <point x="113" y="0" type="line"/>
      <point x="125" y="0"/>
      <point x="128" y="3"/>
      <point x="128" y="13" type="curve"/>
      <point x="130" y="64" type="line" smooth="yes"/>
      <point x="130" y="73"/>
      <point x="135" y="74"/>
      <point x="140" y="67" type="curve"/>
      <point x="152" y="50"/>
      <point x="202" y="-10"/>
      <point x="305" y="-10" type="curve"/>
      <point x="449" y="-10"/>
      <point x="533" y="96"/>
      <point x="533" y="267" type="curve"/>
      <point x="533" y="416"/>
      <point x="469" y="540"/>
      <point x="316" y="540" type="curve"/>
      <point x="210" y="540"/>
      <point x="154" y="482"/>
      <point x="144" y="473" type="curve"/>
      <point x="135" y="465"/>
      <point x="131" y="465"/>
      <point x="131" y="478" type="curve"/>
      <point x="131" y="731" type="line" smooth="yes"/>
      <point x="131" y="739"/>
      <point x="129" y="742"/>
      <point x="123" y="742" type="curve"/>
      <point x="100" y="742" type="line" smooth="yes"/>
      <point x="94" y="742"/>
      <point x="91" y="739"/>
      <point x="91" y="732" type="curve"/>
      <point x="91" y="13" type="line" smooth="yes"/>
      <point x="91" y="3"/>
      <point x="94" y="0"/>
    </contour>
    <contour>
      <point x="131" y="177" type="curve"/>
      <point x="131" y="415" type="line"/>
      <point x="171" y="463"/>
      <point x="235" y="502"/>
      <point x="309" y="502" type="curve"/>
      <point x="427" y="502"/>
      <point x="490" y="409"/>
      <point x="490" y="267" type="curve"/>
      <point x="490" y="103"/>
      <point x="405" y="28"/>
      <point x="301" y="28" type="curve"/>
      <point x="217" y="28"/>
      <point x="131" y="96"/>
    </contour>
  </outline>
</glyph>
<glyph name="i" format="2">
  <advance width="222"/>
  <unicode hex="0069"/>
  <outline>
    <contour>
      <point x="131" y="12" type="curve"/>
      <point x="131" y="520" type="line"/>
      <point x="131" y="528"/>
      <point x="129" y="530"/>
      <point x="122" y="530" type="curve"/>
      <point x="100" y="530" type="line" smooth="yes"/>
      <point x="93" y="530"/>
      <point x="91" y="528"/>
      <point x="91" y="520" type="curve"/>
      <point x="91" y="10" type="line" smooth="yes"/>
      <point x="91" y="2"/>
      <point x="93" y="0"/>
      <point x="102" y="0" type="curve"/>
      <point x="119" y="0" type="line" smooth="yes"/>
      <point x="129" y="0"/>
      <point x="131" y="2"/>
    </contour>
    <contour>
      <point x="136" y="660" type="curve"/>
      <point x="136" y="729" type="line"/>
      <point x="136" y="737"/>
      <point x="131" y="742"/>
      <point x="124" y="742" type="curve"/>
      <point x="98" y="742" type="line" smooth="yes"/>
      <point x="91" y="742"/>
      <point x="86" y="737"/>
      <point x="86" y="729" type="curve"/>
      <point x="86" y="658" type="line" smooth="yes"/>
      <point x="86" y="650"/>
      <point x="88" y="644"/>
      <point x="97" y="644" type="curve"/>
      <point x="124" y="644" type="line" smooth="yes"/>
      <point x="134" y="644"/>
      <point x="136" y="650"/>
    </contour>
  </outline>
</glyph>
<glyph name="z" format="2">
  <advance width="458"/>
  <unicode hex="007A"/>
  <anchor x="244" y="530" name="top"/>
  <outline>
    <contour>
      <point x="42" y="0" type="curve"/>
      <point x="42" y="0" type="line"/>
      <point x="412" y="0" type="line" smooth="yes"/>
      <point x="418" y="0"/>
      <point x="420" y="2"/>
      <point x="420" y="8" type="curve"/>
      <point x="420" y="29" type="line" smooth="yes"/>
      <point x="420" y="33"/>
      <point x="418" y="35"/>
      <point x="414" y="35" type="curve"/>
      <point x="87" y="35" type="line" smooth="yes"/>
      <point x="83" y="35"/>
      <point x="81" y="37"/>
      <point x="85" y="42" type="curve"/>
      <point x="406" y="478" type="line" smooth="yes"/>
      <point x="411" y="484"/>
      <point x="413" y="491"/>
      <point x="413" y="499" type="curve"/>
      <point x="413" y="524" type="line" smooth="yes"/>
      <point x="413" y="528"/>
      <point x="411" y="530"/>
      <point x="408" y="530" type="curve"/>
      <point x="64" y="530" type="line" smooth="yes"/>
      <point x="60" y="530"/>
      <point x="58" y="528"/>
      <point x="58" y="523" type="curve"/>
      <point x="58" y="502" type="line" smooth="yes"/>
      <point x="58" y="496"/>
      <point x="60" y="495"/>
      <point x="65" y="495" type="curve"/>
      <point x="362" y="495" type="line" smooth="yes"/>
      <point x="367" y="495"/>
      <point x="369" y="492"/>
      <point x="365" y="487" type="curve"/>
      <point x="44" y="50" type="line" smooth="yes"/>
      <point x="38" y="42"/>
      <point x="36" y="37"/>
      <point x="36" y="30" type="curve"/>
      <point x="36" y="7" type="line" smooth="yes"/>
      <point x="36" y="2"/>
      <point x="37" y="0"/>
    </contour>
  </outline>
</glyph>
<glyph name="yen" format="2">
  <advance width="578"/>
  <unicode hex="00A5"/>
  <outline>
    <contour>
      <point x="550" y="742" type="curve"/>
      <point x="550" y="742" type="line"/>
      <point x="528" y="742" type="line" smooth="yes"/>
      <point x="519" y="742"/>
      <point x="517" y="741"/>
      <point x="512" y="733" type="curve"/>
      <point x="299" y="374" type="line" smooth="yes"/>
      <point x="292" y="362"/>
      <point x="289" y="363"/>
      <point x="282" y="375" type="curve"/>
      <point x="73" y="733" type="line" smooth="yes"/>
      <point x="69" y="740"/>
      <point x="66" y="742"/>
      <point x="57" y="742" type="curve"/>
      <point x="30" y="742" type="line" smooth="yes"/>
      <point x="20" y="742"/>
      <point x="18" y="737"/>
      <point x="22" y="730" type="curve"/>
      <point x="264" y="319" type="line" smooth="yes"/>
      <point x="268" y="312"/>
      <point x="269" y="309"/>
      <point x="269" y="299" type="curve"/>
      <point x="269" y="11" type="line" smooth="yes"/>
      <point x="269" y="4"/>
      <point x="272" y="0"/>
      <point x="281" y="0" type="curve"/>
      <point x="300" y="0" type="line" smooth="yes"/>
      <point x="311" y="0"/>
      <point x="315" y="4"/>
      <point x="315" y="13" type="curve"/>
      <point x="315" y="314" type="line" smooth="yes"/>
      <point x="315" y="324"/>
      <point x="315" y="328"/>
      <point x="319" y="334" type="curve"/>
      <point x="556" y="731" type="line" smooth="yes"/>
      <point x="560" y="737"/>
      <point x="557" y="742"/>
    </contour>
    <contour>
      <point x="475" y="307" type="curve"/>
      <point x="475" y="331" type="line"/>
      <point x="475" y="335"/>
      <point x="472" y="337"/>
      <point x="468" y="337" type="curve"/>
      <point x="114" y="336" type="line" smooth="yes"/>
      <point x="111" y="336"/>
      <point x="109" y="334"/>
      <point x="109" y="329" type="curve"/>
      <point x="109" y="305" type="line" smooth="yes"/>
      <point x="109" y="300"/>
      <point x="111" y="298"/>
      <point x="117" y="298" type="curve"/>
      <point x="465" y="299" type="line" smooth="yes"/>
      <point x="472" y="299"/>
      <point x="475" y="301"/>
    </contour>
    <contour>
      <point x="475" y="167" type="curve"/>
      <point x="475" y="191" type="line"/>
      <point x="475" y="195"/>
      <point x="472" y="197"/>
      <point x="468" y="197" type="curve"/>
      <point x="114" y="196" type="line" smooth="yes"/>
      <point x="111" y="196"/>
      <point x="109" y="194"/>
      <point x="109" y="189" type="curve"/>
      <point x="109" y="165" type="line" smooth="yes"/>
      <point x="109" y="160"/>
      <point x="111" y="158"/>
      <point x="117" y="158" type="curve"/>
      <point x="465" y="159" type="line" smooth="yes"/>
      <point x="472" y="159"/>
      <point x="475" y="161"/>
    </contour>
  </outline>
</glyph>
<glyph name="registered" format="2">
  <advance width="545"/>
  <unicode hex="00AE"/>
  <outline>
    <contour>
      <point x="273" y="275" type="curve"/>
      <point x="273" y="275" type="line"/>
      <point x="404" y="275"/>
      <point x="511" y="381"/>
      <point x="511" y="513" type="curve"/>
      <point x="511" y="645"/>
      <point x="404" y="752"/>
      <point x="273" y="752" type="curve"/>
      <point x="140" y="752"/>
      <point x="34" y="645"/>
      <point x="34" y="513" type="curve"/>
      <point x="34" y="381"/>
      <point x="140" y="275"/>
    </contour>
    <contour>
      <point x="273" y="310" type="curve"/>
      <point x="273" y="310" type="line"/>
      <point x="153" y="310"/>
      <point x="70" y="389"/>
      <point x="70" y="513" type="curve"/>
      <point x="70" y="636"/>
      <point x="153" y="717"/>
      <point x="273" y="717" type="curve"/>
      <point x="391" y="717"/>
      <point x="475" y="636"/>
      <point x="475" y="513" type="curve"/>
      <point x="475" y="389"/>
      <point x="391" y="310"/>
    </contour>
    <contour>
      <point x="354" y="398" type="curve"/>
      <point x="354" y="398" type="line"/>
      <point x="312" y="508" type="line" smooth="yes"/>
      <point x="311" y="509"/>
      <point x="312" y="510"/>
      <point x="313" y="510" type="curve"/>
      <point x="335" y="517"/>
      <point x="362" y="532"/>
      <point x="362" y="572" type="curve"/>
      <point x="362" y="610"/>
      <point x="335" y="630"/>
      <point x="288" y="630" type="curve"/>
      <point x="188" y="630" type="line" smooth="yes"/>
      <point x="186" y="630"/>
      <point x="186" y="629"/>
      <point x="186" y="626" type="curve"/>
      <point x="186" y="396" type="line" smooth="yes"/>
      <point x="186" y="394"/>
      <point x="186" y="393"/>
      <point x="189" y="393" type="curve"/>
      <point x="212" y="393" type="line" smooth="yes"/>
      <point x="215" y="393"/>
      <point x="215" y="394"/>
      <point x="215" y="397" type="curve"/>
      <point x="215" y="503" type="line" smooth="yes"/>
      <point x="215" y="506"/>
      <point x="216" y="507"/>
      <point x="219" y="507" type="curve"/>
      <point x="275" y="507" type="line" smooth="yes"/>
      <point x="284" y="507"/>
      <point x="281" y="506"/>
      <point x="282" y="504" type="curve"/>
      <point x="323" y="396" type="line" smooth="yes"/>
      <point x="324" y="394"/>
      <point x="325" y="393"/>
      <point x="327" y="393" type="curve"/>
      <point x="351" y="393" type="line" smooth="yes"/>
      <point x="354" y="393"/>
      <point x="355" y="395"/>
    </contour>
    <contour>
      <point x="281" y="535" type="curve"/>
      <point x="281" y="535" type="line"/>
      <point x="218" y="535" type="line" smooth="yes"/>
      <point x="216" y="535"/>
      <point x="215" y="536"/>
      <point x="215" y="538" type="curve"/>
      <point x="215" y="599" type="line" smooth="yes"/>
      <point x="215" y="606"/>
      <point x="216" y="602"/>
      <point x="219" y="602" type="curve"/>
      <point x="278" y="602" type="line" smooth="yes"/>
      <point x="322" y="602"/>
      <point x="331" y="586"/>
      <point x="331" y="568" type="curve"/>
      <point x="331" y="542"/>
      <point x="308" y="535"/>
    </contour>
  </outline>
</glyph>
<glyph name="guillemetright" format="2">
  <advance width="420"/>
  <unicode hex="00BB"/>
  <outline>
    <contour>
      <point x="164" y="251" type="curve"/>
      <point x="164" y="251" type="line"/>
      <point x="50" y="83" type="line" smooth="yes"/>
      <point x="48" y="79"/>
      <point x="51" y="78"/>
      <point x="57" y="78" type="curve"/>
      <point x="69" y="78" type="line" smooth="yes"/>
      <point x="73" y="78"/>
      <point x="76" y="80"/>
      <point x="77" y="82" type="curve"/>
      <point x="215" y="250" type="line" smooth="yes"/>
      <point x="219" y="255"/>
      <point x="219" y="259"/>
      <point x="216" y="263" type="curve"/>
      <point x="76" y="441" type="line" smooth="yes"/>
      <point x="73" y="445"/>
      <point x="72" y="445"/>
      <point x="69" y="445" type="curve"/>
      <point x="55" y="445" type="line" smooth="yes"/>
      <point x="51" y="445"/>
      <point x="47" y="442"/>
      <point x="50" y="437" type="curve"/>
      <point x="164" y="263" type="line" smooth="yes"/>
      <point x="167" y="259"/>
      <point x="167" y="255"/>
    </contour>
    <contour>
      <point x="331" y="251" type="curve"/>
      <point x="331" y="251" type="line"/>
      <point x="217" y="83" type="line" smooth="yes"/>
      <point x="215" y="79"/>
      <point x="218" y="78"/>
      <point x="224" y="78" type="curve"/>
      <point x="236" y="78" type="line" smooth="yes"/>
      <point x="240" y="78"/>
      <point x="243" y="80"/>
      <point x="244" y="82" type="curve"/>
      <point x="382" y="250" type="line" smooth="yes"/>
      <point x="387" y="255"/>
      <point x="387" y="259"/>
      <point x="383" y="263" type="curve"/>
      <point x="243" y="441" type="line" smooth="yes"/>
      <point x="240" y="445"/>
      <point x="239" y="445"/>
      <point x="236" y="445" type="curve"/>
      <point x="222" y="445" type="line" smooth="yes"/>
      <point x="218" y="445"/>
      <point x="214" y="442"/>
      <point x="217" y="437" type="curve"/>
      <point x="331" y="263" type="line" smooth="yes"/>
      <point x="334" y="259"/>
      <point x="334" y="255"/>
    </contour>
  </outline>
</glyph>
<glyph name="gcommaaccent" format="2">
	<advance width="582"/>
	<unicode hex="0123"/>
	<anchor x="283" y="550" name="top"/>
	<outline>
		<contour>
			<point x="257" y="632" type="curve"/>
			<point x="257" y="632" type="line"/>
			<point x="302" y="632" type="line" smooth="yes"/>
			<point x="306" y="632"/>
			<point x="309" y="634"/>
			<point x="309" y="640" type="curve"/>
			<point x="309" y="706" type="line" smooth="yes"/>
			<point x="309" y="713"/>
			<point x="307" y="715"/>
			<point x="301" y="715" type="curve"/>
			<point x="293" y="715" type="line" smooth="yes"/>
			<point x="288" y="715"/>
			<point x="286" y="718"/>
			<point x="289" y="724" type="curve"/>
			<point x="314" y="778" type="line" smooth="yes"/>
			<point x="316" y="782"/>
			<point x="314" y="786"/>
			<point x="310" y="786" type="curve"/>
			<point x="297" y="786" type="line" smooth="yes"/>
			<point x="289" y="786"/>
			<point x="286" y="785"/>
			<point x="283" y="780" type="curve"/>
			<point x="252" y="721" type="line" smooth="yes"/>
			<point x="252" y="720"/>
			<point x="251" y="717"/>
			<point x="251" y="715" type="curve"/>
			<point x="251" y="639" type="line" smooth="yes"/>
			<point x="251" y="634"/>
			<point x="253" y="632"/>
		</contour>
		<component base="g"/>
	</outline>
</glyph>
<glyph name="hbar" format="2">
  <advance width="576"/>
  <unicode hex="0127"/>
  <outline>
    <contour>
      <point x="309" y="635" type="curve"/>
      <point x="309" y="656" type="line"/>
      <point x="309" y="660"/>
      <point x="307" y="662"/>
      <point x="304" y="662" type="curve"/>
      <point x="25" y="662" type="line" smooth="yes"/>
      <point x="22" y="662"/>
      <point x="20" y="660"/>
      <point x="20" y="655" type="curve"/>
      <point x="20" y="635" type="line" smooth="yes"/>
      <point x="20" y="629"/>
      <point x="21" y="627"/>
      <point x="27" y="627" type="curve"/>
      <point x="299" y="627" type="line" smooth="yes"/>
      <point x="306" y="627"/>
      <point x="309" y="629"/>
    </contour>
    <component base="h"/>
  </outline>
</glyph>
<glyph name="idotless" format="2">
  <advance width="222"/>
  <unicode hex="0131"/>
  <anchor x="123" y="13" name="ogonek"/>
  <anchor x="111" y="530" name="top"/>
  <outline>
    <contour>
      <point x="131" y="12" type="curve"/>
      <point x="131" y="520" type="line"/>
      <point x="131" y="528"/>
      <point x="129" y="530"/>
      <point x="122" y="530" type="curve"/>
      <point x="100" y="530" type="line" smooth="yes"/>
      <point x="93" y="530"/>
      <point x="91" y="528"/>
      <point x="91" y="520" type="curve"/>
      <point x="91" y="10" type="line" smooth="yes"/>
      <point x="91" y="2"/>
      <point x="93" y="0"/>
      <point x="102" y="0" type="curve"/>
      <point x="119" y="0" type="line" smooth="yes"/>
      <point x="129" y="0"/>
      <point x="131" y="2"/>
    </contour>
  </outline>
</glyph>
<glyph name="tbar" format="2">
  <advance width="358"/>
  <unicode hex="0167"/>
  <outline>
    <contour>
      <point x="276" y="288" type="curve"/>
      <point x="276" y="309" type="line"/>
      <point x="276" y="313"/>
      <point x="274" y="315"/>
      <point x="271" y="315" type="curve"/>
      <point x="52" y="315" type="line" smooth="yes"/>
      <point x="49" y="315"/>
      <point x="47" y="313"/>
      <point x="47" y="308" type="curve"/>
      <point x="47" y="288" type="line" smooth="yes"/>
      <point x="47" y="282"/>
      <point x="48" y="280"/>
      <point x="54" y="280" type="curve"/>
      <point x="266" y="280" type="line" smooth="yes"/>
      <point x="273" y="280"/>
      <point x="276" y="282"/>
    </contour>
    <component base="t"/>
  </outline>
</glyph>
<glyph name="brevecomb" format="2">
  <unicode hex="0306"/>
  <anchor x="-142" y="708" name="top"/>
  <anchor x="-140" y="530" name="_top"/>
  <outline>
    <contour>
      <point x="-18" y="742" type="curve"/>
      <point x="-18" y="742" type="line"/>
      <point x="-53" y="742" type="line" smooth="yes"/>
      <point x="-57" y="742"/>
      <point x="-59" y="741"/>
      <point x="-62" y="736" type="curve"/>
      <point x="-73" y="717"/>
      <point x="-96" y="691"/>
      <point x="-142" y="691" type="curve"/>
      <point x="-191" y="691"/>
      <point x="-207" y="722"/>
      <point x="-217" y="735" type="curve"/>
      <point x="-221" y="740"/>
      <point x="-223" y="742"/>
      <point x="-229" y="742" type="curve"/>
      <point x="-264" y="742" type="line" smooth="yes"/>
      <point x="-270" y="742"/>
      <point x="-269" y="737"/>
      <point x="-268" y="734" type="curve"/>
      <point x="-256" y="698"/>
      <point x="-219" y="650"/>
      <point x="-142" y="650" type="curve"/>
      <point x="-62" y="650"/>
      <point x="-20" y="701"/>
      <point x="-11" y="733" type="curve"/>
      <point x="-9" y="740"/>
      <point x="-10" y="742"/>
    </contour>
  </outline>
</glyph>
<glyph name="dotaccentcomb" format="2">
	<advance width="0"/>
	<unicode hex="0307"/>
	<anchor x="-35" y="530" name="_top"/>
	<outline>
		<contour>
			<point x="-10" y="656" type="curve"/>
			<point x="-10" y="732" type="line"/>
			<point x="-10" y="740"/>
			<point x="-12" y="742"/>
			<point x="-19" y="742" type="curve"/>
			<point x="-51" y="742" type="line" smooth="yes"/>
			<point x="-58" y="742"/>
			<point x="-60" y="740"/>
			<point x="-60" y="732" type="curve"/>
			<point x="-60" y="654" type="line" smooth="yes"/>
			<point x="-60" y="646"/>
			<point x="-58" y="644"/>
			<point x="-49" y="644" type="curve"/>
			<point x="-22" y="644" type="line" smooth="yes"/>
			<point x="-12" y="644"/>
			<point x="-10" y="646"/>
		</contour>
	</outline>
</glyph>
<glyph name="hungarumlautcomb" format="2">
  <unicode hex="030B"/>
  <anchor x="-225" y="530" name="_top"/>
  <outline>
    <contour>
      <point x="-173" y="720" type="curve"/>
      <point x="-195" y="747" type="line"/>
      <point x="-197" y="749"/>
      <point x="-201" y="750"/>
      <point x="-204" y="747" type="curve"/>
      <point x="-321" y="614" type="line" smooth="yes"/>
      <point x="-323" y="612"/>
      <point x="-325" y="608"/>
      <point x="-321" y="604" type="curve"/>
      <point x="-312" y="591" type="line" smooth="yes"/>
      <point x="-309" y="586"/>
      <point x="-305" y="586"/>
      <point x="-300" y="590" type="curve"/>
      <point x="-176" y="707" type="line" smooth="yes"/>
      <point x="-169" y="713"/>
      <point x="-169" y="715"/>
    </contour>
    <contour>
      <point x="-32" y="720" type="curve"/>
      <point x="-54" y="747" type="line"/>
      <point x="-56" y="749"/>
      <point x="-60" y="750"/>
      <point x="-63" y="747" type="curve"/>
      <point x="-180" y="614" type="line" smooth="yes"/>
      <point x="-182" y="612"/>
      <point x="-184" y="608"/>
      <point x="-180" y="604" type="curve"/>
      <point x="-171" y="591" type="line" smooth="yes"/>
      <point x="-168" y="586"/>
      <point x="-164" y="586"/>
      <point x="-159" y="590" type="curve"/>
      <point x="-35" y="707" type="line" smooth="yes"/>
      <point x="-28" y="713"/>
      <point x="-28" y="715"/>
    </contour>
  </outline>
</glyph>
<glyph name="breveinvertedcomb" format="2">
  <unicode hex="0311"/>
  <outline>
    <contour>
      <point x="-18" y="658" type="line"/>
      <point x="-10" y="658"/>
      <point x="-9" y="660"/>
      <point x="-11" y="667" type="curve" smooth="yes"/>
      <point x="-20" y="699"/>
      <point x="-62" y="750"/>
      <point x="-142" y="750" type="curve" smooth="yes"/>
      <point x="-219" y="750"/>
      <point x="-256" y="702"/>
      <point x="-268" y="666" type="curve" smooth="yes"/>
      <point x="-269" y="663"/>
      <point x="-270" y="658"/>
      <point x="-264" y="658" type="curve" smooth="yes"/>
      <point x="-229" y="658" type="line" smooth="yes"/>
      <point x="-223" y="658"/>
      <point x="-221" y="660"/>
      <point x="-217" y="665" type="curve" smooth="yes"/>
      <point x="-207" y="678"/>
      <point x="-191" y="709"/>
      <point x="-142" y="709" type="curve" smooth="yes"/>
      <point x="-96" y="709"/>
      <point x="-73" y="683"/>
      <point x="-62" y="664" type="curve" smooth="yes"/>
      <point x="-59" y="659"/>
      <point x="-57" y="658"/>
      <point x="-53" y="658" type="curve" smooth="yes"/>
      <point x="-18" y="658" type="line"/>
    </contour>
  </outline>
</glyph>
<glyph name="commaaccentcomb" format="2">
	<advance width="0"/>
	<unicode hex="0326"/>
	<anchor x="-42" y="0" name="_bottom"/>
	<outline>
		<contour>
			<point x="-69" y="-236" type="curve"/>
			<point x="-69" y="-236" type="line"/>
			<point x="-56" y="-236" type="line" smooth="yes"/>
			<point x="-48" y="-236"/>
			<point x="-45" y="-235"/>
			<point x="-42" y="-230" type="curve"/>
			<point x="-11" y="-171" type="line" smooth="yes"/>
			<point x="-11" y="-170"/>
			<point x="-10" y="-167"/>
			<point x="-10" y="-165" type="curve"/>
			<point x="-10" y="-89" type="line" smooth="yes"/>
			<point x="-10" y="-84"/>
			<point x="-12" y="-82"/>
			<point x="-16" y="-82" type="curve"/>
			<point x="-61" y="-82" type="line" smooth="yes"/>
			<point x="-65" y="-82"/>
			<point x="-68" y="-84"/>
			<point x="-68" y="-90" type="curve"/>
			<point x="-68" y="-156" type="line" smooth="yes"/>
			<point x="-68" y="-163"/>
			<point x="-66" y="-165"/>
			<point x="-60" y="-165" type="curve"/>
			<point x="-52" y="-165" type="line" smooth="yes"/>
			<point x="-47" y="-165"/>
			<point x="-45" y="-168"/>
			<point x="-48" y="-174" type="curve"/>
			<point x="-73" y="-228" type="line" smooth="yes"/>
			<point x="-75" y="-232"/>
			<point x="-73" y="-236"/>
		</contour>
	</outline>
</glyph>
<glyph name="cedillacomb" format="2">
  <unicode hex="0327"/>
  <guideline x="355" y="-130" angle="0"/>
  <anchor x="-83" y="0" name="_bottom"/>
  <outline>
    <contour>
      <point x="-10" y="-129" type="curve"/>
      <point x="-10" y="-129" type="line"/>
      <point x="-10" y="-97"/>
      <point x="-27" y="-64"/>
      <point x="-86" y="-58" type="curve"/>
      <point x="-89" y="-58"/>
      <point x="-90" y="-57"/>
      <point x="-89" y="-55" type="curve"/>
      <point x="-65" y="5" type="line"/>
      <point x="-99" y="5" type="line"/>
      <point x="-135" y="-79" type="line" smooth="yes"/>
      <point x="-136" y="-81"/>
      <point x="-136" y="-83"/>
      <point x="-131" y="-83" type="curve"/>
      <point x="-79" y="-85"/>
      <point x="-54" y="-99"/>
      <point x="-54" y="-131" type="curve"/>
      <point x="-54" y="-159"/>
      <point x="-72" y="-174"/>
      <point x="-114" y="-174" type="curve"/>
      <point x="-143" y="-174"/>
      <point x="-157" y="-167"/>
      <point x="-170" y="-156" type="curve"/>
      <point x="-173" y="-154"/>
      <point x="-176" y="-155"/>
      <point x="-177" y="-157" type="curve"/>
      <point x="-186" y="-177" type="line" smooth="yes"/>
      <point x="-187" y="-180"/>
      <point x="-185" y="-182"/>
      <point x="-183" y="-183" type="curve"/>
      <point x="-162" y="-197"/>
      <point x="-139" y="-204"/>
      <point x="-110" y="-204" type="curve"/>
      <point x="-55" y="-204"/>
      <point x="-10" y="-179"/>
    </contour>
  </outline>
</glyph>
<glyph name="colonsign" format="2">
  <advance width="600"/>
  <unicode hex="20A1"/>
  <outline>
    <contour>
      <point x="290" y="621" type="curve"/>
      <point x="290" y="621" type="line"/>
      <point x="320" y="732" type="line" smooth="yes"/>
      <point x="321" y="737"/>
      <point x="320" y="742"/>
      <point x="314" y="742" type="curve"/>
      <point x="289" y="742" type="line" smooth="yes"/>
      <point x="283" y="742"/>
      <point x="279" y="741"/>
      <point x="278" y="736" type="curve"/>
      <point x="250" y="631" type="line" smooth="yes"/>
      <point x="248" y="623"/>
      <point x="250" y="619"/>
      <point x="259" y="616" type="curve"/>
      <point x="274" y="612" type="line" smooth="yes"/>
      <point x="283" y="610"/>
      <point x="288" y="613"/>
    </contour>
    <contour>
      <point x="387" y="621" type="curve"/>
      <point x="387" y="621" type="line"/>
      <point x="417" y="732" type="line" smooth="yes"/>
      <point x="418" y="737"/>
      <point x="417" y="742"/>
      <point x="411" y="742" type="curve"/>
      <point x="386" y="742" type="line" smooth="yes"/>
      <point x="380" y="742"/>
      <point x="376" y="741"/>
      <point x="375" y="736" type="curve"/>
      <point x="347" y="631" type="line" smooth="yes"/>
      <point x="345" y="623"/>
      <point x="347" y="619"/>
      <point x="356" y="616" type="curve"/>
      <point x="371" y="612" type="line" smooth="yes"/>
      <point x="380" y="610"/>
      <point x="385" y="613"/>
    </contour>
    <contour>
      <point x="301" y="6" type="curve"/>
      <point x="301" y="6" type="line"/>
      <point x="329" y="111" type="line" smooth="yes"/>
      <point x="331" y="119"/>
      <point x="329" y="123"/>
      <point x="320" y="126" type="curve"/>
      <point x="305" y="130" type="line" smooth="yes"/>
      <point x="296" y="132"/>
      <point x="291" y="129"/>
      <point x="289" y="121" type="curve"/>
      <point x="259" y="10" type="line" smooth="yes"/>
      <point x="258" y="5"/>
      <point x="259" y="0"/>
      <point x="265" y="0" type="curve"/>
      <point x="290" y="0" type="line" smooth="yes"/>
      <point x="296" y="0"/>
      <point x="300" y="1"/>
    </contour>
    <contour>
      <point x="204" y="6" type="curve"/>
      <point x="204" y="6" type="line"/>
      <point x="232" y="111" type="line" smooth="yes"/>
      <point x="234" y="119"/>
      <point x="232" y="123"/>
      <point x="223" y="126" type="curve"/>
      <point x="208" y="130" type="line" smooth="yes"/>
      <point x="199" y="132"/>
      <point x="194" y="129"/>
      <point x="192" y="121" type="curve"/>
      <point x="162" y="10" type="line" smooth="yes"/>
      <point x="161" y="5"/>
      <point x="162" y="0"/>
      <point x="168" y="0" type="curve"/>
      <point x="193" y="0" type="line" smooth="yes"/>
      <point x="199" y="0"/>
      <point x="203" y="1"/>
    </contour>
    <component base="c" xOffset="1" yOffset="103"/>
  </outline>
</glyph>
<glyph name="published" format="2">
  <advance width="830"/>
  <unicode hex="2117"/>
  <outline>
    <contour>
      <point x="415" y="-10" type="curve"/>
      <point x="415" y="-10" type="line"/>
      <point x="625" y="-10"/>
      <point x="796" y="159"/>
      <point x="796" y="371" type="curve"/>
      <point x="796" y="581"/>
      <point x="625" y="752"/>
      <point x="415" y="752" type="curve"/>
      <point x="204" y="752"/>
      <point x="34" y="581"/>
      <point x="34" y="371" type="curve"/>
      <point x="34" y="159"/>
      <point x="204" y="-10"/>
    </contour>
    <contour>
      <point x="415" y="34" type="curve"/>
      <point x="415" y="34" type="line"/>
      <point x="234" y="34"/>
      <point x="79" y="166"/>
      <point x="79" y="371" type="curve"/>
      <point x="79" y="573"/>
      <point x="234" y="709"/>
      <point x="415" y="709" type="curve"/>
      <point x="592" y="709"/>
      <point x="751" y="573"/>
      <point x="751" y="371" type="curve"/>
      <point x="751" y="166"/>
      <point x="592" y="34"/>
    </contour>
    <contour>
      <point x="572" y="466" type="curve"/>
      <point x="572" y="466" type="line"/>
      <point x="572" y="537"/>
      <point x="513" y="568"/>
      <point x="429" y="568" type="curve"/>
      <point x="294" y="568" type="line" smooth="yes"/>
      <point x="290" y="568"/>
      <point x="289" y="567"/>
      <point x="289" y="562" type="curve"/>
      <point x="289" y="172" type="line" smooth="yes"/>
      <point x="289" y="170"/>
      <point x="291" y="168"/>
      <point x="293" y="168" type="curve"/>
      <point x="325" y="168" type="line" smooth="yes"/>
      <point x="327" y="168"/>
      <point x="329" y="170"/>
      <point x="329" y="173" type="curve"/>
      <point x="329" y="334" type="line" smooth="yes"/>
      <point x="329" y="342"/>
      <point x="330" y="339"/>
      <point x="333" y="339" type="curve"/>
      <point x="432" y="339" type="line" smooth="yes"/>
      <point x="513" y="339"/>
      <point x="572" y="380"/>
    </contour>
    <contour>
      <point x="531" y="455" type="curve"/>
      <point x="531" y="455" type="line"/>
      <point x="531" y="400"/>
      <point x="486" y="375"/>
      <point x="432" y="375" type="curve"/>
      <point x="333" y="375" type="line" smooth="yes"/>
      <point x="330" y="375"/>
      <point x="329" y="377"/>
      <point x="329" y="381" type="curve"/>
      <point x="329" y="528" type="line" smooth="yes"/>
      <point x="329" y="545"/>
      <point x="331" y="532"/>
      <point x="334" y="532" type="curve"/>
      <point x="428" y="532" type="line" smooth="yes"/>
      <point x="486" y="532"/>
      <point x="531" y="516"/>
    </contour>
  </outline>
</glyph>
<glyph name="servicemark" format="2">
  <advance width="886"/>
  <unicode hex="2120"/>
  <outline>
    <contour>
      <point x="313" y="670" type="curve"/>
      <point x="313" y="670" type="line"/>
      <point x="316" y="666"/>
      <point x="318" y="664"/>
      <point x="321" y="667" type="curve" smooth="yes"/>
      <point x="334" y="679" type="line"/>
      <point x="338" y="682"/>
      <point x="337" y="686"/>
      <point x="334" y="688" type="curve"/>
      <point x="299" y="726"/>
      <point x="257" y="748"/>
      <point x="199" y="748" type="curve" smooth="yes"/>
      <point x="113" y="748"/>
      <point x="54" y="704"/>
      <point x="54" y="626" type="curve" smooth="yes"/>
      <point x="54" y="586"/>
      <point x="73" y="541"/>
      <point x="140" y="516" type="curve" smooth="yes"/>
      <point x="234" y="479" type="line" smooth="yes"/>
      <point x="303" y="453"/>
      <point x="317" y="427"/>
      <point x="317" y="391" type="curve" smooth="yes"/>
      <point x="317" y="324"/>
      <point x="268" y="298"/>
      <point x="193" y="298" type="curve" smooth="yes"/>
      <point x="126" y="298"/>
      <point x="96" y="321"/>
      <point x="61" y="366" type="curve" smooth="yes"/>
      <point x="58" y="370"/>
      <point x="55" y="371"/>
      <point x="49" y="366" type="curve"/>
      <point x="42" y="361" type="line" smooth="yes"/>
      <point x="36" y="357"/>
      <point x="35" y="353"/>
      <point x="38" y="349" type="curve" smooth="yes"/>
      <point x="75" y="296"/>
      <point x="124" y="272"/>
      <point x="193" y="272" type="curve" smooth="yes"/>
      <point x="288" y="272"/>
      <point x="346" y="316"/>
      <point x="346" y="392" type="curve" smooth="yes"/>
      <point x="346" y="444"/>
      <point x="319" y="482"/>
      <point x="245" y="509" type="curve" smooth="yes"/>
      <point x="159" y="540" type="line" smooth="yes"/>
      <point x="92" y="564"/>
      <point x="83" y="602"/>
      <point x="83" y="626" type="curve" smooth="yes"/>
      <point x="83" y="688"/>
      <point x="129" y="722"/>
      <point x="197" y="722" type="curve" smooth="yes"/>
      <point x="249" y="722"/>
      <point x="288" y="699"/>
    </contour>
    <contour>
      <point x="431" y="278" type="curve"/>
      <point x="431" y="278" type="line"/>
      <point x="447" y="278" type="line" smooth="yes"/>
      <point x="451" y="278"/>
      <point x="453" y="280"/>
      <point x="453" y="284" type="curve" smooth="yes"/>
      <point x="453" y="667" type="line" smooth="yes"/>
      <point x="453" y="669"/>
      <point x="454" y="669"/>
      <point x="455" y="667" type="curve"/>
      <point x="607" y="284" type="line"/>
      <point x="609" y="280"/>
      <point x="612" y="278"/>
      <point x="619" y="278" type="curve" smooth="yes"/>
      <point x="636" y="278" type="line" smooth="yes"/>
      <point x="642" y="278"/>
      <point x="644" y="280"/>
      <point x="646" y="285" type="curve" smooth="yes"/>
      <point x="802" y="670" type="line"/>
      <point x="802" y="672"/>
      <point x="803" y="673"/>
      <point x="803" y="670" type="curve" smooth="yes"/>
      <point x="803" y="284" type="line" smooth="yes"/>
      <point x="803" y="279"/>
      <point x="805" y="278"/>
      <point x="810" y="278" type="curve" smooth="yes"/>
      <point x="827" y="278" type="line" smooth="yes"/>
      <point x="830" y="278"/>
      <point x="832" y="280"/>
      <point x="832" y="284" type="curve" smooth="yes"/>
      <point x="832" y="736" type="line" smooth="yes"/>
      <point x="832" y="741"/>
      <point x="831" y="742"/>
      <point x="827" y="742" type="curve" smooth="yes"/>
      <point x="808" y="742" type="line" smooth="yes"/>
      <point x="805" y="742"/>
      <point x="803" y="741"/>
      <point x="802" y="737" type="curve"/>
      <point x="632" y="319" type="line" smooth="yes"/>
      <point x="628" y="310"/>
      <point x="625" y="310"/>
      <point x="622" y="318" type="curve" smooth="yes"/>
      <point x="455" y="737" type="line"/>
      <point x="454" y="741"/>
      <point x="452" y="742"/>
      <point x="447" y="742" type="curve" smooth="yes"/>
      <point x="431" y="742" type="line" smooth="yes"/>
      <point x="427" y="742"/>
      <point x="425" y="741"/>
      <point x="425" y="736" type="curve" smooth="yes"/>
      <point x="425" y="284" type="line" smooth="yes"/>
      <point x="425" y="280"/>
      <point x="427" y="278"/>
    </contour>
  </outline>
</glyph>
<glyph name="trademark" format="2">
  <advance width="883"/>
  <unicode hex="2122"/>
  <outline>
    <contour>
      <point x="29" y="737" type="curve" smooth="yes"/>
      <point x="29" y="721" type="line" smooth="yes"/>
      <point x="29" y="717"/>
      <point x="31" y="717"/>
      <point x="34" y="717" type="curve" smooth="yes"/>
      <point x="181" y="717" type="line" smooth="yes"/>
      <point x="186" y="717"/>
      <point x="187" y="716"/>
      <point x="187" y="711" type="curve" smooth="yes"/>
      <point x="187" y="284" type="line" smooth="yes"/>
      <point x="187" y="279"/>
      <point x="188" y="278"/>
      <point x="193" y="278" type="curve" smooth="yes"/>
      <point x="210" y="278" type="line" smooth="yes"/>
      <point x="214" y="278"/>
      <point x="216" y="279"/>
      <point x="216" y="284" type="curve" smooth="yes"/>
      <point x="216" y="711" type="line" smooth="yes"/>
      <point x="216" y="716"/>
      <point x="217" y="717"/>
      <point x="222" y="717" type="curve" smooth="yes"/>
      <point x="355" y="717" type="line" smooth="yes"/>
      <point x="359" y="717"/>
      <point x="360" y="717"/>
      <point x="360" y="721" type="curve" smooth="yes"/>
      <point x="360" y="737" type="line" smooth="yes"/>
      <point x="360" y="741"/>
      <point x="359" y="742"/>
      <point x="356" y="742" type="curve" smooth="yes"/>
      <point x="34" y="742" type="line" smooth="yes"/>
      <point x="31" y="742"/>
      <point x="29" y="741"/>
    </contour>
    <contour>
      <point x="441" y="278" type="curve"/>
      <point x="441" y="278" type="line"/>
      <point x="457" y="278" type="line" smooth="yes"/>
      <point x="461" y="278"/>
      <point x="463" y="280"/>
      <point x="463" y="284" type="curve" smooth="yes"/>
      <point x="463" y="667" type="line" smooth="yes"/>
      <point x="463" y="669"/>
      <point x="464" y="669"/>
      <point x="465" y="667" type="curve"/>
      <point x="617" y="284" type="line"/>
      <point x="619" y="280"/>
      <point x="622" y="278"/>
      <point x="629" y="278" type="curve" smooth="yes"/>
      <point x="646" y="278" type="line" smooth="yes"/>
      <point x="652" y="278"/>
      <point x="654" y="280"/>
      <point x="656" y="285" type="curve" smooth="yes"/>
      <point x="812" y="670" type="line"/>
      <point x="812" y="672"/>
      <point x="813" y="673"/>
      <point x="813" y="670" type="curve" smooth="yes"/>
      <point x="813" y="284" type="line" smooth="yes"/>
      <point x="813" y="279"/>
      <point x="815" y="278"/>
      <point x="820" y="278" type="curve" smooth="yes"/>
      <point x="837" y="278" type="line" smooth="yes"/>
      <point x="840" y="278"/>
      <point x="842" y="280"/>
      <point x="842" y="284" type="curve" smooth="yes"/>
      <point x="842" y="736" type="line" smooth="yes"/>
      <point x="842" y="741"/>
      <point x="841" y="742"/>
      <point x="837" y="742" type="curve" smooth="yes"/>
      <point x="818" y="742" type="line" smooth="yes"/>
      <point x="815" y="742"/>
      <point x="813" y="741"/>
      <point x="812" y="737" type="curve"/>
      <point x="642" y="319" type="line" smooth="yes"/>
      <point x="638" y="310"/>
      <point x="635" y="310"/>
      <point x="632" y="318" type="curve" smooth="yes"/>
      <point x="465" y="737" type="line"/>
      <point x="464" y="741"/>
      <point x="462" y="742"/>
      <point x="457" y="742" type="curve" smooth="yes"/>
      <point x="441" y="742" type="line" smooth="yes"/>
      <point x="437" y="742"/>
      <point x="435" y="741"/>
      <point x="435" y="736" type="curve" smooth="yes"/>
      <point x="435" y="284" type="line" smooth="yes"/>
      <point x="435" y="280"/>
      <point x="437" y="278"/>
    </contour>
  </outline>
</glyph>
<glyph name="estimated" format="2">
  <advance width="830"/>
  <unicode hex="212E"/>
  <outline>
    <contour>
      <point x="721" y="152" type="curve"/>
      <point x="721" y="152" type="line"/>
      <point x="688" y="152" type="line" smooth="yes"/>
      <point x="685" y="152"/>
      <point x="683" y="151"/>
      <point x="681" y="149" type="curve"/>
      <point x="623" y="81"/>
      <point x="521" y="21"/>
      <point x="415" y="21" type="curve"/>
      <point x="345" y="21"/>
      <point x="284" y="38"/>
      <point x="234" y="74" type="curve"/>
      <point x="229" y="77"/>
      <point x="228" y="79"/>
      <point x="228" y="87" type="curve"/>
      <point x="228" y="363" type="line" smooth="yes"/>
      <point x="228" y="369"/>
      <point x="230" y="371"/>
      <point x="236" y="371" type="curve"/>
      <point x="783" y="371" type="line" smooth="yes"/>
      <point x="792" y="371"/>
      <point x="796" y="374"/>
      <point x="796" y="385" type="curve"/>
      <point x="796" y="586"/>
      <point x="622" y="752"/>
      <point x="415" y="752" type="curve"/>
      <point x="204" y="752"/>
      <point x="34" y="581"/>
      <point x="34" y="371" type="curve"/>
      <point x="34" y="159"/>
      <point x="204" y="-10"/>
      <point x="415" y="-10" type="curve"/>
      <point x="542" y="-10"/>
      <point x="651" y="55"/>
      <point x="723" y="146" type="curve"/>
      <point x="726" y="150"/>
      <point x="724" y="152"/>
    </contour>
    <contour>
      <point x="415" y="717" type="curve"/>
      <point x="415" y="717" type="line"/>
      <point x="480" y="717"/>
      <point x="537" y="701"/>
      <point x="584" y="675" type="curve"/>
      <point x="590" y="671"/>
      <point x="592" y="667"/>
      <point x="592" y="661" type="curve"/>
      <point x="592" y="414" type="line" smooth="yes"/>
      <point x="592" y="408"/>
      <point x="590" y="406"/>
      <point x="585" y="406" type="curve"/>
      <point x="235" y="406" type="line" smooth="yes"/>
      <point x="230" y="406"/>
      <point x="228" y="408"/>
      <point x="228" y="413" type="curve"/>
      <point x="228" y="652" type="line" smooth="yes"/>
      <point x="228" y="660"/>
      <point x="231" y="666"/>
      <point x="237" y="670" type="curve"/>
      <point x="287" y="700"/>
      <point x="347" y="717"/>
    </contour>
  </outline>
</glyph>
<glyph name="integral" format="2">
  <advance width="426"/>
  <unicode hex="222B"/>
  <outline>
    <contour>
      <point x="260" y="-7" type="curve"/>
      <point x="260" y="223"/>
      <point x="207" y="464"/>
      <point x="207" y="694" type="curve"/>
      <point x="207" y="774"/>
      <point x="255" y="810"/>
      <point x="309" y="810" type="curve"/>
      <point x="339" y="810"/>
      <point x="357" y="805"/>
      <point x="390" y="789" type="curve"/>
      <point x="398" y="785"/>
      <point x="405" y="786"/>
      <point x="407" y="793" type="curve"/>
      <point x="415" y="816" type="line" smooth="yes"/>
      <point x="418" y="825"/>
      <point x="414" y="830"/>
      <point x="405" y="834" type="curve"/>
      <point x="369" y="852"/>
      <point x="351" y="856"/>
      <point x="302" y="856" type="curve"/>
      <point x="227.33333333333334" y="856.0"/>
      <point x="162" y="799"/>
      <point x="162" y="688" type="curve" smooth="yes"/>
      <point x="162" y="456"/>
      <point x="215" y="220"/>
      <point x="215" y="-13" type="curve"/>
      <point x="215" y="-93"/>
      <point x="167" y="-129"/>
      <point x="117" y="-129" type="curve"/>
      <point x="87" y="-129"/>
      <point x="69" y="-124"/>
      <point x="36" y="-108" type="curve"/>
      <point x="28" y="-104"/>
      <point x="21" y="-105"/>
      <point x="19" y="-112" type="curve"/>
      <point x="11" y="-135" type="line" smooth="yes"/>
      <point x="8" y="-144"/>
      <point x="12" y="-149"/>
      <point x="21" y="-153" type="curve"/>
      <point x="57" y="-171"/>
      <point x="75" y="-175"/>
      <point x="124" y="-175" type="curve"/>
      <point x="194" y="-175"/>
      <point x="260" y="-118"/>
    </contour>
  </outline>
</glyph>
<glyph name="lessequal" format="2">
  <advance width="531"/>
  <unicode hex="2264"/>
  <outline>
    <contour>
      <point x="460" y="278" type="curve"/>
      <point x="460" y="299" type="line"/>
      <point x="460" y="306"/>
      <point x="456" y="309"/>
      <point x="447" y="313" type="curve"/>
      <point x="129" y="441" type="line"/>
      <point x="448" y="568" type="line" smooth="yes"/>
      <point x="457" y="572"/>
      <point x="461" y="575"/>
      <point x="461" y="581" type="curve"/>
      <point x="461" y="607" type="line" smooth="yes"/>
      <point x="461" y="617"/>
      <point x="456" y="621"/>
      <point x="444" y="616" type="curve"/>
      <point x="76" y="468" type="line" smooth="yes"/>
      <point x="71" y="466"/>
      <point x="68" y="464"/>
      <point x="68" y="458" type="curve"/>
      <point x="68" y="423" type="line" smooth="yes"/>
      <point x="68" y="418"/>
      <point x="71" y="415"/>
      <point x="76" y="413" type="curve"/>
      <point x="444" y="267" type="line" smooth="yes"/>
      <point x="453" y="263"/>
      <point x="460" y="267"/>
    </contour>
    <contour>
      <point x="461" y="90" type="curve"/>
      <point x="461" y="114" type="line"/>
      <point x="461" y="119"/>
      <point x="459" y="121"/>
      <point x="456" y="121" type="curve"/>
      <point x="67" y="122" type="line" smooth="yes"/>
      <point x="63" y="122"/>
      <point x="60" y="120"/>
      <point x="60" y="116" type="curve"/>
      <point x="60" y="92" type="line" smooth="yes"/>
      <point x="60" y="86"/>
      <point x="63" y="84"/>
      <point x="70" y="84" type="curve"/>
      <point x="453" y="83" type="line" smooth="yes"/>
      <point x="459" y="83"/>
      <point x="461" y="85"/>
    </contour>
  </outline>
</glyph>
<glyph name="eight.dnom" format="2">
  <advance width="401"/>
  <outline>
    <contour>
      <point x="193" y="469" type="curve"/>
      <point x="193" y="469" type="line"/>
      <point x="108" y="469"/>
      <point x="43" y="414"/>
      <point x="43" y="339" type="curve" smooth="yes"/>
      <point x="43" y="295"/>
      <point x="64" y="262"/>
      <point x="103" y="243" type="curve" smooth="yes"/>
      <point x="114" y="238"/>
      <point x="114" y="235"/>
      <point x="103" y="227" type="curve" smooth="yes"/>
      <point x="53" y="194"/>
      <point x="31" y="158"/>
      <point x="31" y="112" type="curve" smooth="yes"/>
      <point x="31" y="36"/>
      <point x="91" y="-10"/>
      <point x="192" y="-10" type="curve" smooth="yes"/>
      <point x="291" y="-10"/>
      <point x="356" y="39"/>
      <point x="356" y="114" type="curve" smooth="yes"/>
      <point x="356" y="168"/>
      <point x="324" y="209"/>
      <point x="269" y="226" type="curve"/>
      <point x="264" y="227"/>
      <point x="264" y="230"/>
      <point x="270" y="234" type="curve"/>
      <point x="317" y="270"/>
      <point x="335" y="300"/>
      <point x="335" y="341" type="curve" smooth="yes"/>
      <point x="335" y="419"/>
      <point x="279" y="469"/>
    </contour>
    <contour>
      <point x="193" y="443" type="curve"/>
      <point x="193" y="443" type="line"/>
      <point x="262" y="443"/>
      <point x="306" y="404"/>
      <point x="306" y="344" type="curve" smooth="yes"/>
      <point x="306" y="288"/>
      <point x="249" y="233"/>
      <point x="224" y="238" type="curve" smooth="yes"/>
      <point x="150" y="254" type="line" smooth="yes"/>
      <point x="99" y="265"/>
      <point x="72" y="294"/>
      <point x="72" y="339" type="curve" smooth="yes"/>
      <point x="72" y="398"/>
      <point x="125" y="443"/>
    </contour>
    <contour>
      <point x="193" y="16" type="curve"/>
      <point x="193" y="16" type="line"/>
      <point x="109" y="16"/>
      <point x="60" y="52"/>
      <point x="60" y="113" type="curve" smooth="yes"/>
      <point x="60" y="180"/>
      <point x="131" y="229"/>
      <point x="155" y="223" type="curve" smooth="yes"/>
      <point x="251" y="202" type="line" smooth="yes"/>
      <point x="303" y="190"/>
      <point x="327" y="163"/>
      <point x="327" y="116" type="curve" smooth="yes"/>
      <point x="327" y="55"/>
      <point x="274" y="16"/>
    </contour>
  </outline>
</glyph>
<glyph name="eight.numr" format="2">
  <advance width="401"/>
  <outline>
    <contour>
      <point x="193" y="752" type="curve"/>
      <point x="193" y="752" type="line"/>
      <point x="108" y="752"/>
      <point x="43" y="697"/>
      <point x="43" y="622" type="curve" smooth="yes"/>
      <point x="43" y="578"/>
      <point x="64" y="545"/>
      <point x="103" y="526" type="curve" smooth="yes"/>
      <point x="114" y="521"/>
      <point x="114" y="518"/>
      <point x="103" y="510" type="curve" smooth="yes"/>
      <point x="53" y="477"/>
      <point x="31" y="441"/>
      <point x="31" y="395" type="curve" smooth="yes"/>
      <point x="31" y="319"/>
      <point x="91" y="273"/>
      <point x="192" y="273" type="curve" smooth="yes"/>
      <point x="291" y="273"/>
      <point x="356" y="322"/>
      <point x="356" y="397" type="curve" smooth="yes"/>
      <point x="356" y="451"/>
      <point x="324" y="492"/>
      <point x="269" y="509" type="curve"/>
      <point x="264" y="510"/>
      <point x="264" y="513"/>
      <point x="270" y="517" type="curve"/>
      <point x="317" y="553"/>
      <point x="335" y="583"/>
      <point x="335" y="624" type="curve" smooth="yes"/>
      <point x="335" y="702"/>
      <point x="279" y="752"/>
    </contour>
    <contour>
      <point x="193" y="726" type="curve"/>
      <point x="193" y="726" type="line"/>
      <point x="262" y="726"/>
      <point x="306" y="687"/>
      <point x="306" y="627" type="curve" smooth="yes"/>
      <point x="306" y="571"/>
      <point x="249" y="516"/>
      <point x="224" y="521" type="curve" smooth="yes"/>
      <point x="150" y="537" type="line" smooth="yes"/>
      <point x="99" y="548"/>
      <point x="72" y="577"/>
      <point x="72" y="622" type="curve" smooth="yes"/>
      <point x="72" y="681"/>
      <point x="125" y="726"/>
    </contour>
    <contour>
      <point x="193" y="299" type="curve"/>
      <point x="193" y="299" type="line"/>
      <point x="109" y="299"/>
      <point x="60" y="335"/>
      <point x="60" y="396" type="curve" smooth="yes"/>
      <point x="60" y="463"/>
      <point x="131" y="512"/>
      <point x="155" y="506" type="curve" smooth="yes"/>
      <point x="251" y="485" type="line" smooth="yes"/>
      <point x="303" y="473"/>
      <point x="327" y="446"/>
      <point x="327" y="399" type="curve" smooth="yes"/>
      <point x="327" y="338"/>
      <point x="274" y="299"/>
    </contour>
  </outline>
</glyph>
<glyph name="five.dnom" format="2">
  <advance width="401"/>
  <outline>
    <contour>
      <point x="325" y="464" type="curve" smooth="yes"/>
      <point x="76" y="464" type="line" smooth="yes"/>
      <point x="67" y="464"/>
      <point x="67" y="464"/>
      <point x="67" y="459" type="curve"/>
      <point x="50" y="239" type="line"/>
      <point x="50" y="229"/>
      <point x="47" y="233"/>
      <point x="54" y="228" type="curve"/>
      <point x="67" y="220" type="line" smooth="yes"/>
      <point x="72" y="217"/>
      <point x="70" y="215"/>
      <point x="76" y="219" type="curve" smooth="yes"/>
      <point x="106" y="239"/>
      <point x="147" y="264"/>
      <point x="201" y="264" type="curve" smooth="yes"/>
      <point x="264" y="264"/>
      <point x="322" y="230"/>
      <point x="322" y="149" type="curve" smooth="yes"/>
      <point x="322" y="71"/>
      <point x="267" y="16"/>
      <point x="174" y="16" type="curve" smooth="yes"/>
      <point x="117" y="16"/>
      <point x="87" y="36"/>
      <point x="49" y="69" type="curve"/>
      <point x="47" y="71"/>
      <point x="45" y="72"/>
      <point x="43" y="70" type="curve" smooth="yes"/>
      <point x="31" y="57" type="line"/>
      <point x="27" y="54"/>
      <point x="27" y="53"/>
      <point x="30" y="50" type="curve" smooth="yes"/>
      <point x="72" y="9"/>
      <point x="125" y="-9"/>
      <point x="179" y="-9" type="curve" smooth="yes"/>
      <point x="276" y="-9"/>
      <point x="351" y="49"/>
      <point x="351" y="150" type="curve" smooth="yes"/>
      <point x="351" y="250"/>
      <point x="277" y="289"/>
      <point x="201" y="289" type="curve" smooth="yes"/>
      <point x="149" y="289"/>
      <point x="118" y="271"/>
      <point x="87" y="253" type="curve"/>
      <point x="84" y="250"/>
      <point x="81" y="254"/>
      <point x="81" y="259" type="curve"/>
      <point x="94" y="432" type="line"/>
      <point x="94" y="436"/>
      <point x="97" y="437"/>
      <point x="100" y="437" type="curve" smooth="yes"/>
      <point x="324" y="437" type="line" smooth="yes"/>
      <point x="330" y="437"/>
      <point x="328" y="437"/>
      <point x="329" y="442" type="curve"/>
      <point x="331" y="458" type="line"/>
      <point x="332" y="462"/>
      <point x="330" y="464"/>
    </contour>
  </outline>
</glyph>
<glyph name="five.numr" format="2">
  <advance width="401"/>
  <outline>
    <contour>
      <point x="325" y="743" type="curve" smooth="yes"/>
      <point x="76" y="743" type="line" smooth="yes"/>
      <point x="67" y="743"/>
      <point x="67" y="743"/>
      <point x="67" y="738" type="curve"/>
      <point x="50" y="518" type="line"/>
      <point x="50" y="508"/>
      <point x="47" y="512"/>
      <point x="54" y="507" type="curve"/>
      <point x="67" y="499" type="line" smooth="yes"/>
      <point x="72" y="496"/>
      <point x="70" y="494"/>
      <point x="76" y="498" type="curve" smooth="yes"/>
      <point x="106" y="518"/>
      <point x="147" y="543"/>
      <point x="201" y="543" type="curve" smooth="yes"/>
      <point x="264" y="543"/>
      <point x="322" y="509"/>
      <point x="322" y="428" type="curve" smooth="yes"/>
      <point x="322" y="350"/>
      <point x="267" y="295"/>
      <point x="174" y="295" type="curve" smooth="yes"/>
      <point x="117" y="295"/>
      <point x="87" y="315"/>
      <point x="49" y="348" type="curve"/>
      <point x="47" y="350"/>
      <point x="45" y="351"/>
      <point x="43" y="349" type="curve" smooth="yes"/>
      <point x="31" y="336" type="line"/>
      <point x="27" y="333"/>
      <point x="27" y="332"/>
      <point x="30" y="329" type="curve" smooth="yes"/>
      <point x="72" y="288"/>
      <point x="125" y="270"/>
      <point x="179" y="270" type="curve" smooth="yes"/>
      <point x="276" y="270"/>
      <point x="351" y="328"/>
      <point x="351" y="429" type="curve" smooth="yes"/>
      <point x="351" y="529"/>
      <point x="277" y="568"/>
      <point x="201" y="568" type="curve" smooth="yes"/>
      <point x="149" y="568"/>
      <point x="118" y="550"/>
      <point x="87" y="532" type="curve"/>
      <point x="84" y="529"/>
      <point x="81" y="533"/>
      <point x="81" y="538" type="curve"/>
      <point x="94" y="711" type="line"/>
      <point x="94" y="715"/>
      <point x="97" y="716"/>
      <point x="100" y="716" type="curve" smooth="yes"/>
      <point x="324" y="716" type="line" smooth="yes"/>
      <point x="330" y="716"/>
      <point x="328" y="716"/>
      <point x="329" y="721" type="curve"/>
      <point x="331" y="737" type="line"/>
      <point x="332" y="741"/>
      <point x="330" y="743"/>
    </contour>
  </outline>
</glyph>
<glyph name="nine.dnom" format="2">
  <advance width="404"/>
  <outline>
    <contour>
      <point x="158" y="-11" type="curve"/>
      <point x="158" y="-11" type="line"/>
      <point x="272" y="-11"/>
      <point x="336" y="81"/>
      <point x="336" y="233" type="curve" smooth="yes"/>
      <point x="336" y="384"/>
      <point x="275" y="468"/>
      <point x="174" y="468" type="curve" smooth="yes"/>
      <point x="91" y="468"/>
      <point x="24" y="411"/>
      <point x="24" y="323" type="curve" smooth="yes"/>
      <point x="24" y="247"/>
      <point x="75" y="187"/>
      <point x="170" y="187" type="curve" smooth="yes"/>
      <point x="226" y="187"/>
      <point x="264" y="207"/>
      <point x="298" y="225" type="curve" smooth="yes"/>
      <point x="307" y="230"/>
      <point x="308" y="226"/>
      <point x="308" y="212" type="curve" smooth="yes"/>
      <point x="308" y="101"/>
      <point x="264" y="15"/>
      <point x="158" y="15" type="curve" smooth="yes"/>
      <point x="116" y="15"/>
      <point x="89" y="28"/>
      <point x="70" y="50" type="curve"/>
      <point x="67" y="53"/>
      <point x="64" y="55"/>
      <point x="62" y="53" type="curve"/>
      <point x="47" y="42" type="line"/>
      <point x="43" y="40"/>
      <point x="45" y="37"/>
      <point x="47" y="35" type="curve" smooth="yes"/>
      <point x="74" y="8"/>
      <point x="106" y="-11"/>
    </contour>
    <contour>
      <point x="167" y="214" type="curve"/>
      <point x="167" y="214" type="line"/>
      <point x="96" y="214"/>
      <point x="53" y="265"/>
      <point x="53" y="325" type="curve" smooth="yes"/>
      <point x="53" y="390"/>
      <point x="104" y="442"/>
      <point x="172" y="442" type="curve" smooth="yes"/>
      <point x="267" y="442"/>
      <point x="308" y="344"/>
      <point x="308" y="282" type="curve" smooth="yes"/>
      <point x="308" y="265"/>
      <point x="304" y="260"/>
      <point x="292" y="252" type="curve" smooth="yes"/>
      <point x="262" y="230"/>
      <point x="208" y="214"/>
    </contour>
  </outline>
</glyph>
<glyph name="nine.numr" format="2">
  <advance width="404"/>
  <outline>
    <contour>
      <point x="158" y="274" type="curve"/>
      <point x="158" y="274" type="line"/>
      <point x="272" y="274"/>
      <point x="336" y="366"/>
      <point x="336" y="518" type="curve" smooth="yes"/>
      <point x="336" y="669"/>
      <point x="275" y="753"/>
      <point x="174" y="753" type="curve" smooth="yes"/>
      <point x="91" y="753"/>
      <point x="24" y="696"/>
      <point x="24" y="608" type="curve" smooth="yes"/>
      <point x="24" y="532"/>
      <point x="75" y="472"/>
      <point x="170" y="472" type="curve" smooth="yes"/>
      <point x="226" y="472"/>
      <point x="264" y="492"/>
      <point x="298" y="510" type="curve" smooth="yes"/>
      <point x="307" y="515"/>
      <point x="308" y="511"/>
      <point x="308" y="497" type="curve" smooth="yes"/>
      <point x="308" y="386"/>
      <point x="264" y="300"/>
      <point x="158" y="300" type="curve" smooth="yes"/>
      <point x="116" y="300"/>
      <point x="89" y="313"/>
      <point x="70" y="335" type="curve"/>
      <point x="67" y="338"/>
      <point x="64" y="340"/>
      <point x="62" y="338" type="curve"/>
      <point x="47" y="327" type="line"/>
      <point x="43" y="325"/>
      <point x="45" y="322"/>
      <point x="47" y="320" type="curve" smooth="yes"/>
      <point x="74" y="293"/>
      <point x="106" y="274"/>
    </contour>
    <contour>
      <point x="167" y="499" type="curve"/>
      <point x="167" y="499" type="line"/>
      <point x="96" y="499"/>
      <point x="53" y="550"/>
      <point x="53" y="610" type="curve" smooth="yes"/>
      <point x="53" y="675"/>
      <point x="104" y="727"/>
      <point x="172" y="727" type="curve" smooth="yes"/>
      <point x="267" y="727"/>
      <point x="308" y="629"/>
      <point x="308" y="567" type="curve" smooth="yes"/>
      <point x="308" y="550"/>
      <point x="304" y="545"/>
      <point x="292" y="537" type="curve" smooth="yes"/>
      <point x="262" y="515"/>
      <point x="208" y="499"/>
    </contour>
  </outline>
</glyph>
<glyph name="one.dnom" format="2">
  <advance width="299"/>
  <outline>
    <contour>
      <point x="214" y="26" type="curve"/>
      <point x="214" y="26" type="line"/>
      <point x="136" y="26" type="line" smooth="yes"/>
      <point x="134" y="26"/>
      <point x="132" y="28"/>
      <point x="132" y="30" type="curve" smooth="yes"/>
      <point x="132" y="461" type="line" smooth="yes"/>
      <point x="132" y="465"/>
      <point x="131" y="467"/>
      <point x="127" y="467" type="curve" smooth="yes"/>
      <point x="110" y="467" type="line" smooth="yes"/>
      <point x="105" y="467"/>
      <point x="102" y="466"/>
      <point x="97" y="463" type="curve"/>
      <point x="10" y="420" type="line"/>
      <point x="7" y="418"/>
      <point x="7" y="418"/>
      <point x="7" y="415" type="curve" smooth="yes"/>
      <point x="7" y="399" type="line" smooth="yes"/>
      <point x="7" y="396"/>
      <point x="8" y="394"/>
      <point x="12" y="395" type="curve"/>
      <point x="100" y="430" type="line"/>
      <point x="103" y="431"/>
      <point x="103" y="430"/>
      <point x="103" y="426" type="curve" smooth="yes"/>
      <point x="103" y="29" type="line" smooth="yes"/>
      <point x="103" y="27"/>
      <point x="102" y="26"/>
      <point x="100" y="26" type="curve" smooth="yes"/>
      <point x="11" y="26" type="line" smooth="yes"/>
      <point x="8" y="26"/>
      <point x="7" y="25"/>
      <point x="7" y="23" type="curve" smooth="yes"/>
      <point x="7" y="4" type="line" smooth="yes"/>
      <point x="7" y="2"/>
      <point x="8" y="0"/>
      <point x="11" y="0" type="curve" smooth="yes"/>
      <point x="214" y="0" type="line" smooth="yes"/>
      <point x="217" y="0"/>
      <point x="218" y="3"/>
      <point x="218" y="4" type="curve" smooth="yes"/>
      <point x="218" y="23" type="line" smooth="yes"/>
      <point x="218" y="25"/>
      <point x="217" y="26"/>
    </contour>
  </outline>
</glyph>
<glyph name="seven.dnom" format="2">
  <advance width="365"/>
  <outline>
    <contour>
      <point x="334" y="467" type="curve" smooth="yes"/>
      <point x="39" y="467" type="line" smooth="yes"/>
      <point x="34" y="467"/>
      <point x="33" y="466"/>
      <point x="32" y="462" type="curve"/>
      <point x="31" y="445" type="line"/>
      <point x="31" y="442"/>
      <point x="31" y="440"/>
      <point x="34" y="440" type="curve" smooth="yes"/>
      <point x="297" y="440" type="line" smooth="yes"/>
      <point x="304" y="440"/>
      <point x="304" y="437"/>
      <point x="301" y="433" type="curve"/>
      <point x="200" y="277"/>
      <point x="136" y="101"/>
      <point x="115" y="8" type="curve" smooth="yes"/>
      <point x="114" y="3"/>
      <point x="115" y="0"/>
      <point x="121" y="0" type="curve" smooth="yes"/>
      <point x="139" y="0" type="line" smooth="yes"/>
      <point x="143" y="0"/>
      <point x="145" y="3"/>
      <point x="146" y="9" type="curve" smooth="yes"/>
      <point x="162" y="94"/>
      <point x="244" y="303"/>
      <point x="333" y="433" type="curve"/>
      <point x="338" y="439"/>
      <point x="338" y="442"/>
      <point x="338" y="448" type="curve" smooth="yes"/>
      <point x="338" y="463" type="line" smooth="yes"/>
      <point x="338" y="465"/>
      <point x="337" y="467"/>
    </contour>
  </outline>
</glyph>
<glyph name="three.dnom" format="2">
  <advance width="399"/>
  <outline>
    <contour>
      <point x="47" y="403" type="curve"/>
      <point x="47" y="403" type="line"/>
      <point x="54" y="394" type="line"/>
      <point x="58" y="390"/>
      <point x="61" y="390"/>
      <point x="64" y="394" type="curve"/>
      <point x="96" y="425"/>
      <point x="137" y="444"/>
      <point x="183" y="444" type="curve" smooth="yes"/>
      <point x="251" y="444"/>
      <point x="298" y="405"/>
      <point x="298" y="354" type="curve" smooth="yes"/>
      <point x="298" y="297"/>
      <point x="238" y="255"/>
      <point x="163" y="255" type="curve" smooth="yes"/>
      <point x="117" y="255" type="line" smooth="yes"/>
      <point x="114" y="255"/>
      <point x="112" y="253"/>
      <point x="112" y="250" type="curve" smooth="yes"/>
      <point x="112" y="234" type="line" smooth="yes"/>
      <point x="112" y="231"/>
      <point x="114" y="230"/>
      <point x="117" y="230" type="curve" smooth="yes"/>
      <point x="174" y="230" type="line" smooth="yes"/>
      <point x="242" y="230"/>
      <point x="312" y="193"/>
      <point x="312" y="120" type="curve" smooth="yes"/>
      <point x="312" y="60"/>
      <point x="263" y="17"/>
      <point x="176" y="17" type="curve" smooth="yes"/>
      <point x="126" y="17"/>
      <point x="85" y="30"/>
      <point x="47" y="69" type="curve"/>
      <point x="46" y="71"/>
      <point x="44" y="73"/>
      <point x="41" y="69" type="curve"/>
      <point x="27" y="57" type="line"/>
      <point x="24" y="53"/>
      <point x="24" y="53"/>
      <point x="27" y="50" type="curve" smooth="yes"/>
      <point x="71" y="7"/>
      <point x="114" y="-9"/>
      <point x="173" y="-9" type="curve" smooth="yes"/>
      <point x="285" y="-9"/>
      <point x="341" y="51"/>
      <point x="341" y="122" type="curve" smooth="yes"/>
      <point x="341" y="186"/>
      <point x="295" y="228"/>
      <point x="244" y="242" type="curve"/>
      <point x="234" y="244"/>
      <point x="234" y="245"/>
      <point x="244" y="249" type="curve" smooth="yes"/>
      <point x="295" y="267"/>
      <point x="327" y="305"/>
      <point x="327" y="354" type="curve" smooth="yes"/>
      <point x="327" y="419"/>
      <point x="270" y="470"/>
      <point x="181" y="470" type="curve" smooth="yes"/>
      <point x="130" y="470"/>
      <point x="89" y="453"/>
      <point x="47" y="410" type="curve" smooth="yes"/>
      <point x="45" y="408"/>
      <point x="44" y="405"/>
    </contour>
  </outline>
</glyph>
<glyph name="three.numr" format="2">
  <advance width="399"/>
  <outline>
    <contour>
      <point x="47" y="685" type="curve"/>
      <point x="47" y="685" type="line"/>
      <point x="54" y="676" type="line"/>
      <point x="58" y="672"/>
      <point x="61" y="672"/>
      <point x="64" y="676" type="curve"/>
      <point x="96" y="707"/>
      <point x="137" y="726"/>
      <point x="183" y="726" type="curve" smooth="yes"/>
      <point x="251" y="726"/>
      <point x="298" y="687"/>
      <point x="298" y="636" type="curve" smooth="yes"/>
      <point x="298" y="579"/>
      <point x="238" y="537"/>
      <point x="163" y="537" type="curve" smooth="yes"/>
      <point x="117" y="537" type="line" smooth="yes"/>
      <point x="114" y="537"/>
      <point x="112" y="535"/>
      <point x="112" y="532" type="curve" smooth="yes"/>
      <point x="112" y="516" type="line" smooth="yes"/>
      <point x="112" y="513"/>
      <point x="114" y="512"/>
      <point x="117" y="512" type="curve" smooth="yes"/>
      <point x="174" y="512" type="line" smooth="yes"/>
      <point x="242" y="512"/>
      <point x="312" y="475"/>
      <point x="312" y="402" type="curve" smooth="yes"/>
      <point x="312" y="342"/>
      <point x="263" y="299"/>
      <point x="176" y="299" type="curve" smooth="yes"/>
      <point x="126" y="299"/>
      <point x="85" y="312"/>
      <point x="47" y="351" type="curve"/>
      <point x="46" y="353"/>
      <point x="44" y="355"/>
      <point x="41" y="351" type="curve"/>
      <point x="27" y="339" type="line"/>
      <point x="24" y="335"/>
      <point x="24" y="335"/>
      <point x="27" y="332" type="curve" smooth="yes"/>
      <point x="71" y="289"/>
      <point x="114" y="273"/>
      <point x="173" y="273" type="curve" smooth="yes"/>
      <point x="285" y="273"/>
      <point x="341" y="333"/>
      <point x="341" y="404" type="curve" smooth="yes"/>
      <point x="341" y="468"/>
      <point x="295" y="510"/>
      <point x="244" y="524" type="curve"/>
      <point x="234" y="526"/>
      <point x="234" y="527"/>
      <point x="244" y="531" type="curve" smooth="yes"/>
      <point x="295" y="549"/>
      <point x="327" y="587"/>
      <point x="327" y="636" type="curve" smooth="yes"/>
      <point x="327" y="701"/>
      <point x="270" y="752"/>
      <point x="181" y="752" type="curve" smooth="yes"/>
      <point x="130" y="752"/>
      <point x="89" y="735"/>
      <point x="47" y="692" type="curve" smooth="yes"/>
      <point x="45" y="690"/>
      <point x="44" y="687"/>
    </contour>
  </outline>
</glyph>
<glyph name="two.dnom" format="2">
  <advance width="384"/>
  <outline>
    <contour>
      <point x="174" y="191" type="curve" smooth="yes"/>
      <point x="29" y="41" type="line" smooth="yes"/>
      <point x="22" y="34"/>
      <point x="20" y="30"/>
      <point x="20" y="20" type="curve" smooth="yes"/>
      <point x="20" y="8" type="line" smooth="yes"/>
      <point x="20" y="2"/>
      <point x="22" y="0"/>
      <point x="27" y="0" type="curve" smooth="yes"/>
      <point x="297" y="0" type="line" smooth="yes"/>
      <point x="300" y="0"/>
      <point x="302" y="2"/>
      <point x="302" y="5" type="curve" smooth="yes"/>
      <point x="302" y="21" type="line" smooth="yes"/>
      <point x="302" y="25"/>
      <point x="300" y="26"/>
      <point x="296" y="26" type="curve" smooth="yes"/>
      <point x="59" y="26" type="line" smooth="yes"/>
      <point x="53" y="26"/>
      <point x="51" y="30"/>
      <point x="55" y="34" type="curve" smooth="yes"/>
      <point x="188" y="170" type="line" smooth="yes"/>
      <point x="266" y="250"/>
      <point x="297" y="291"/>
      <point x="297" y="348" type="curve" smooth="yes"/>
      <point x="297" y="437"/>
      <point x="230" y="473"/>
      <point x="165" y="473" type="curve" smooth="yes"/>
      <point x="115" y="473"/>
      <point x="57" y="452"/>
      <point x="22" y="404" type="curve" smooth="yes"/>
      <point x="19" y="400"/>
      <point x="19" y="399"/>
      <point x="24" y="394" type="curve"/>
      <point x="33" y="386" type="line"/>
      <point x="37" y="382"/>
      <point x="41" y="384"/>
      <point x="43" y="387" type="curve" smooth="yes"/>
      <point x="72" y="430"/>
      <point x="122" y="447"/>
      <point x="160" y="447" type="curve" smooth="yes"/>
      <point x="211" y="447"/>
      <point x="268" y="416"/>
      <point x="268" y="352" type="curve" smooth="yes"/>
      <point x="268" y="300"/>
      <point x="238" y="256"/>
    </contour>
  </outline>
</glyph>
<glyph name="two.numr" format="2">
  <advance width="384"/>
  <outline>
    <contour>
      <point x="174" y="470" type="curve" smooth="yes"/>
      <point x="29" y="320" type="line" smooth="yes"/>
      <point x="22" y="313"/>
      <point x="20" y="309"/>
      <point x="20" y="299" type="curve" smooth="yes"/>
      <point x="20" y="287" type="line" smooth="yes"/>
      <point x="20" y="281"/>
      <point x="22" y="279"/>
      <point x="27" y="279" type="curve" smooth="yes"/>
      <point x="297" y="279" type="line" smooth="yes"/>
      <point x="300" y="279"/>
      <point x="302" y="281"/>
      <point x="302" y="284" type="curve" smooth="yes"/>
      <point x="302" y="300" type="line" smooth="yes"/>
      <point x="302" y="304"/>
      <point x="300" y="305"/>
      <point x="296" y="305" type="curve" smooth="yes"/>
      <point x="59" y="305" type="line" smooth="yes"/>
      <point x="53" y="305"/>
      <point x="51" y="309"/>
      <point x="55" y="313" type="curve" smooth="yes"/>
      <point x="188" y="449" type="line" smooth="yes"/>
      <point x="266" y="529"/>
      <point x="297" y="570"/>
      <point x="297" y="627" type="curve" smooth="yes"/>
      <point x="297" y="716"/>
      <point x="230" y="752"/>
      <point x="165" y="752" type="curve" smooth="yes"/>
      <point x="115" y="752"/>
      <point x="57" y="731"/>
      <point x="22" y="683" type="curve" smooth="yes"/>
      <point x="19" y="679"/>
      <point x="19" y="678"/>
      <point x="24" y="673" type="curve"/>
      <point x="33" y="665" type="line"/>
      <point x="37" y="661"/>
      <point x="41" y="663"/>
      <point x="43" y="666" type="curve" smooth="yes"/>
      <point x="72" y="709"/>
      <point x="122" y="726"/>
      <point x="160" y="726" type="curve" smooth="yes"/>
      <point x="211" y="726"/>
      <point x="268" y="695"/>
      <point x="268" y="631" type="curve" smooth="yes"/>
      <point x="268" y="579"/>
      <point x="238" y="535"/>
    </contour>
  </outline>
</glyph>
<glyph name="zero.dnom" format="2">
  <advance width="416"/>
  <outline>
    <contour>
      <point x="192" y="468" type="curve"/>
      <point x="192" y="468" type="line"/>
      <point x="100" y="468"/>
      <point x="29" y="389"/>
      <point x="29" y="226" type="curve" smooth="yes"/>
      <point x="29" y="65"/>
      <point x="99" y="-11"/>
      <point x="191" y="-11" type="curve" smooth="yes"/>
      <point x="283" y="-11"/>
      <point x="354" y="65"/>
      <point x="354" y="227" type="curve" smooth="yes"/>
      <point x="354" y="390"/>
      <point x="283" y="468"/>
    </contour>
    <contour>
      <point x="192" y="15" type="curve"/>
      <point x="192" y="15" type="line"/>
      <point x="115" y="15"/>
      <point x="59" y="79"/>
      <point x="59" y="227" type="curve" smooth="yes"/>
      <point x="59" y="377"/>
      <point x="115" y="442"/>
      <point x="192" y="442" type="curve" smooth="yes"/>
      <point x="268" y="442"/>
      <point x="324" y="377"/>
      <point x="324" y="227" type="curve" smooth="yes"/>
      <point x="324" y="78"/>
      <point x="270" y="15"/>
    </contour>
  </outline>
</glyph>
<glyph name="zero.numr" format="2">
  <advance width="416"/>
  <outline>
    <contour>
      <point x="192" y="752" type="curve"/>
      <point x="192" y="752" type="line"/>
      <point x="100" y="752"/>
      <point x="29" y="673"/>
      <point x="29" y="510" type="curve" smooth="yes"/>
      <point x="29" y="349"/>
      <point x="99" y="273"/>
      <point x="191" y="273" type="curve" smooth="yes"/>
      <point x="283" y="273"/>
      <point x="354" y="349"/>
      <point x="354" y="511" type="curve" smooth="yes"/>
      <point x="354" y="674"/>
      <point x="283" y="752"/>
    </contour>
    <contour>
      <point x="192" y="299" type="curve"/>
      <point x="192" y="299" type="line"/>
      <point x="115" y="299"/>
      <point x="59" y="363"/>
      <point x="59" y="511" type="curve" smooth="yes"/>
      <point x="59" y="661"/>
      <point x="115" y="726"/>
      <point x="192" y="726" type="curve" smooth="yes"/>
      <point x="268" y="726"/>
      <point x="324" y="661"/>
      <point x="324" y="511" type="curve" smooth="yes"/>
      <point x="324" y="362"/>
      <point x="270" y="299"/>
    </contour>
  </outline>
</glyph>
